<svg width="14" height="14" viewBox="0 0 14 14" fill="none" xmlns="http://www.w3.org/2000/svg">
<path d="M7.00273 3.71881L8.28947 2.43499C8.60318 2.12199 9.11363 2.12199 9.42734 2.43499C9.74105 2.74798 9.74105 3.25727 9.42734 3.57026L7.00273 5.98936" fill="white"/>
<path d="M7.00273 3.71881L5.71589 2.435C5.40218 2.122 4.89174 2.122 4.57803 2.435C4.26432 2.748 4.26432 3.25728 4.57803 3.57028L7.00273 5.98936" fill="white"/>
<path d="M10.2886 6.98669L11.5753 8.27051C11.889 8.58351 11.889 9.0928 11.5753 9.40579C11.2616 9.71879 10.7512 9.71879 10.4374 9.40579L8.01284 6.98669" fill="white"/>
<path d="M10.2886 6.98669L11.5753 5.70289C11.889 5.3899 11.889 4.88061 11.5753 4.56761C11.2616 4.25462 10.7512 4.25462 10.4375 4.56761L8.01284 6.98669" fill="white"/>
<path d="M3.70066 6.98671L2.41392 5.70289C2.10021 5.3899 2.10021 4.88061 2.41392 4.56761C2.72763 4.25462 3.23807 4.25462 3.55178 4.56761L5.97639 6.98671" fill="white"/>
<path d="M3.70066 6.98671L2.41395 8.27051C2.10024 8.58351 2.10024 9.0928 2.41395 9.40579C2.72766 9.71879 3.2381 9.71879 3.55181 9.40579L5.97639 6.98671" fill="white"/>
<path d="M5.81164 1.18302L7.00267 2.36605L8.18839 1.18302L7.00267 0L5.81164 1.18302Z" fill="white"/>
<path d="M11.6286 6.98672L12.8143 8.16974L14 6.98672L12.8143 5.79839L11.6286 6.98672Z" fill="white"/>
<path d="M0 6.98672L1.18572 8.16974L2.37143 6.98672L1.18572 5.79839L0 6.98672Z" fill="white"/>
<path d="M7.00273 11.7294L8.28947 10.4456C8.60318 10.1326 9.11363 10.1326 9.42734 10.4456C9.74105 10.7586 9.74105 11.2679 9.42734 11.5809L7.00273 14" fill="white"/>
<path d="M7.00273 11.7294L5.71589 10.4456C5.40218 10.1326 4.89174 10.1326 4.57803 10.4456C4.26432 10.7586 4.26432 11.2679 4.57803 11.5809L7.00273 14" fill="white"/>
<path d="M7.00267 10.3926L8.18839 9.20953L7.00267 8.02651L5.81164 9.20953L7.00267 10.3926Z" fill="white"/>
</svg>
