<svg width="186" height="24" viewBox="0 0 186 24" fill="none" xmlns="http://www.w3.org/2000/svg">
<path d="M26.7475 23.9251H44.6055V19.4585H32.1444V13.9803H42.476V9.51007H32.1444V4.46651H44.6806V0H26.7475V23.9251ZM66.1063 15.0595L54.4077 0H46.3518L48.8607 3.02763V24H54.2536V8.28852L66.3354 23.9251H71.5032V0H66.1063V15.0595ZM18.6166 11.6159C20.9871 11.185 22.9626 9.09414 22.9626 6.14145C22.9468 2.95269 20.517 0 15.6534 0H0L2.4298 2.95269V23.9363H16.1986C21.0661 23.9363 23.571 21.0548 23.571 17.4501C23.4801 14.4862 21.3348 11.9644 18.6166 11.6159ZM7.82671 4.49649H14.5906C16.4159 4.49649 17.5538 5.5082 17.5538 7.01827C17.5538 8.52834 16.4159 9.54005 14.5906 9.54005H7.82671V4.49649ZM14.8158 19.4848H7.82671V13.9803H14.8158C16.8703 13.9803 18.0082 15.2056 18.0082 16.7194C18.0082 18.4468 16.7913 19.4585 14.8158 19.4585V19.4848ZM150.454 15.0595H153.267V17.8735C151.812 19.016 149.988 19.6508 148.099 19.6721C143.615 19.6721 140.426 16.4309 140.426 12.0356C140.426 7.64028 143.615 4.39532 148.099 4.39532C149.251 4.40437 150.383 4.68599 151.392 5.21467C152.401 5.74335 153.254 6.50237 153.875 7.42295L158.13 5.17471C156.309 2.45059 153.113 0 148.024 0C140.881 0 134.954 4.68384 134.954 11.9644C134.954 19.245 140.806 23.9251 148.024 23.9251C149.973 23.9557 151.907 23.585 153.69 22.8385C155.474 22.092 157.066 20.9874 158.356 19.6009V10.7391H146.807L150.454 15.0595ZM126.14 15.0595L114.438 0H106.382L108.89 3.02763V24H114.287V8.28852L126.369 23.9251H131.533V0H126.14V15.0595ZM176.21 0H165.803L168.308 3.02763L167.854 4.17799L159.798 24H165.878L167.458 19.9607H178.343L179.924 24H186L176.21 0ZM168.845 15.423L172.796 5.11475L176.747 15.423H168.845ZM97.8714 0H103.268V24H97.8714V0ZM93.5413 4.10679V0H74.5414V4.46651H86.4731L74.5414 19.8183V23.9251H93.7704V19.4585H81.5345L93.5413 4.10679Z" fill="white"/>
</svg>
