<svg width="272" height="84" viewBox="0 0 272 84" fill="none" xmlns="http://www.w3.org/2000/svg">
<path d="M49.8555 61.6377H27.4932V84H49.8555V61.6377Z" fill="#ABEBF4"/>
<path d="M69.6529 30.856H27.4932V53.1382H69.6529H77.2674V30.856H69.6529Z" fill="#00B3C8"/>
<path d="M96.6641 0H27.4932V22.3624H96.6641V0Z" fill="#009BB5"/>
<path d="M22.3623 30.856H0V53.2183H22.3623V30.856Z" fill="#00B3C8"/>
<path d="M139.224 30.3784V41.5998H161.828V52.821H139.224V70.3742H124.717V19.1572H164.873V30.2983H139.224V30.3784Z" fill="white"/>
<path d="M185.793 30.6189H170.083V19.1572H215.93V30.6189H200.3V70.294H185.793V30.6189Z" fill="white"/>
<path d="M254.407 70.2926L243.827 54.4226L233.407 70.2926H216.896L235.411 44.4836L217.616 19.2358H233.888L244.147 33.9838L254.246 19.2358H269.876L252.081 43.9226L271.078 70.3727H254.407V70.2926Z" fill="white"/>
</svg>