<svg width="1728" height="1731" viewBox="0 0 1728 1731" fill="none" xmlns="http://www.w3.org/2000/svg">
<path d="M1191.78 371.909C1191.81 384.925 1189.26 397.818 1184.28 409.845C1179.31 421.873 1172 432.799 1162.79 441.995L864 740.678L565.211 441.995C555.997 432.799 548.691 421.874 543.715 409.846C538.738 397.818 536.188 384.925 536.212 371.909C536.192 358.899 538.743 346.014 543.72 333.993C548.696 321.972 556 311.053 565.211 301.863C603.923 263.197 666.663 263.197 705.375 301.863L864.006 460.485L1022.64 301.863C1061.35 263.197 1124.09 263.197 1162.81 301.863C1172.01 311.054 1179.31 321.974 1184.29 333.995C1189.26 346.016 1191.81 358.9 1191.78 371.909Z" stroke="white" stroke-miterlimit="10"/>
<path d="M1427.95 1022.4C1466.62 1061.1 1466.62 1123.83 1427.95 1162.49C1418.76 1171.71 1407.84 1179.01 1395.81 1184C1383.79 1188.98 1370.9 1191.54 1357.88 1191.52C1344.87 1191.54 1331.98 1188.98 1319.95 1184C1307.93 1179.01 1297.01 1171.7 1287.82 1162.48L989.03 863.797L1287.82 565.108C1297.01 555.903 1307.94 548.604 1319.96 543.629C1331.98 538.654 1344.87 536.101 1357.88 536.116C1370.9 536.104 1383.78 538.659 1395.8 543.633C1407.83 548.608 1418.75 555.906 1427.95 565.108C1466.62 603.811 1466.62 666.537 1427.95 705.203L1269.28 863.825L1427.95 1022.4Z" stroke="white" stroke-miterlimit="10"/>
<path d="M737.55 863.81L438.76 1162.48C429.571 1171.7 418.651 1179.01 406.626 1183.99C394.602 1188.97 381.711 1191.53 368.695 1191.51C355.68 1191.52 342.79 1188.96 330.767 1183.98C318.743 1179 307.823 1171.69 298.633 1162.48C259.958 1123.81 259.958 1061.1 298.633 1022.39L457.292 863.791L298.633 705.187C259.958 666.521 259.958 603.811 298.633 565.093C307.83 555.89 318.752 548.593 330.775 543.618C342.797 538.643 355.683 536.088 368.695 536.101C381.708 536.087 394.597 538.643 406.62 543.621C418.643 548.598 429.566 555.901 438.76 565.108L737.55 863.81Z" stroke="white" stroke-miterlimit="10"/>
<path d="M1010.32 147.29L864 1L717.676 147.29L864 293.579L1010.32 147.29Z" stroke="white" stroke-miterlimit="10"/>
<path d="M1727 863.8L1580.68 717.511L1434.35 863.8L1580.68 1010.09L1727 863.8Z" stroke="white" stroke-miterlimit="10"/>
<path d="M293.647 863.801L147.324 717.511L1 863.801L147.323 1010.09L293.647 863.801Z" stroke="white" stroke-miterlimit="10"/>
<path d="M1191.78 1361.28C1191.81 1374.29 1189.25 1387.18 1184.28 1399.2C1179.3 1411.22 1172 1422.14 1162.79 1431.33L864 1730L565.211 1431.32C556 1422.13 548.696 1411.21 543.72 1399.19C538.743 1387.17 536.192 1374.28 536.212 1361.27C536.188 1348.26 538.738 1335.37 543.715 1323.35C548.691 1311.33 555.997 1300.41 565.211 1291.22C603.923 1252.52 666.663 1252.52 705.375 1291.22L864.006 1449.82L1022.64 1291.22C1061.35 1252.52 1124.09 1252.52 1162.81 1291.22C1172.02 1300.41 1179.32 1311.33 1184.29 1323.36C1189.27 1335.38 1191.81 1348.27 1191.78 1361.28Z" stroke="white" stroke-miterlimit="10"/>
<path d="M864.001 992.229L717.677 1138.52L864.001 1284.81L1010.32 1138.52L864.001 992.229Z" stroke="white" stroke-miterlimit="10"/>
</svg>
