<svg width="707" height="484" viewBox="0 0 707 484" fill="none" xmlns="http://www.w3.org/2000/svg">
<path d="M606.966 202.088C616.711 212.317 627.583 213.949 639.583 206.985C634.547 198.909 633.348 190.124 634.69 180.871H611.315C612.35 189.003 612.072 196.574 606.966 202.088Z" fill="#3F3030"/>
<path d="M645.563 469.755L658.066 463.227L663.502 394.134V357.683L634.69 357.14L642.844 393.59L645.563 469.755Z" fill="#3F3030"/>
<path d="M609.319 469.755L596.817 463.227L591.381 394.134V357.683L620.192 357.14L612.038 393.59L609.319 469.755Z" fill="#3F3030"/>
<path d="M590.114 365.3L620.556 362.58L625.449 334.834L631.428 362.036L664.589 359.86C665.313 346.641 663.473 333.035 659.152 319.057L586.309 317.425L590.114 365.3Z" fill="#15161A"/>
<path d="M558.473 261.099L521.855 232.879C521.475 232.586 521.057 232.346 520.612 232.165L515.29 229.998C511.015 228.257 502.873 222.468 506.844 216.506C510.045 211.7 522.301 220.31 523.809 223.5C524.285 224.504 525.067 225.331 526.041 225.863L533.483 229.944C533.664 230.044 533.851 230.132 534.042 230.21L562.374 241.703C563.16 242.021 564.01 242.148 564.854 242.071C565.698 241.995 566.511 241.719 567.227 241.264L572.363 238.005C573.094 237.541 573.927 237.263 574.79 237.193C575.652 237.124 576.519 237.266 577.314 237.608C578.11 237.949 578.81 238.479 579.355 239.152C579.899 239.825 580.272 240.621 580.44 241.47L582.138 250.045C582.382 251.28 582.182 252.561 581.573 253.662C580.964 254.763 579.985 255.613 578.81 256.062L563.62 261.856C562.769 262.181 561.849 262.282 560.948 262.149C560.047 262.016 559.195 261.655 558.473 261.099Z" fill="#3F3030"/>
<path d="M565.275 240.538C575.414 237.817 574.349 251.992 582.084 258.962L597.293 246.946L588.484 204.265C586.12 204.94 583.946 206.157 582.134 207.818C580.321 209.48 578.919 211.54 578.039 213.837L565.275 240.538Z" fill="#EC008C"/>
<path d="M584.135 320.145H660.784C648.379 286.69 649.587 252.281 660.149 217.218C660.326 216.636 660.295 216.01 660.061 215.448C659.827 214.887 659.404 214.425 658.865 214.142L636.865 202.633C628.229 208.256 618.947 206.528 609.141 198.824L585.222 205.353C591.733 244.49 591.918 282.824 584.135 320.145Z" fill="#EC008C"/>
<path d="M603.301 482.533L571.358 483.888C569.967 483.947 568.604 483.489 567.53 482.603C566.456 481.716 565.749 480.463 565.543 479.085C565.335 477.693 565.653 476.274 566.437 475.106C567.22 473.937 568.411 473.104 569.777 472.769L575.195 471.44L596.489 459.087C599.644 462.357 603.989 465.121 609.299 467.475L609.361 476.16C609.373 477.801 608.748 479.383 607.617 480.572C606.487 481.76 604.939 482.464 603.301 482.533Z" fill="#15161A"/>
<path d="M651.316 482.048L683.259 483.403C684.65 483.462 686.014 483.004 687.087 482.117C688.161 481.23 688.869 479.977 689.075 478.599C689.283 477.208 688.964 475.789 688.181 474.62C687.397 473.452 686.206 472.618 684.841 472.283L679.423 470.954L658.128 458.602C654.973 461.871 650.629 464.636 645.318 466.99L645.256 475.675C645.244 477.316 645.87 478.897 647 480.086C648.131 481.275 649.678 481.978 651.316 482.048Z" fill="#15161A"/>
<path d="M620.557 190.664C630.164 190.664 637.952 182.869 637.952 173.254C637.952 163.64 630.164 155.845 620.557 155.845C610.949 155.845 603.161 163.64 603.161 173.254C603.161 182.869 610.949 190.664 620.557 190.664Z" fill="#3F3030"/>
<path d="M647.737 314.705L641.99 325.888C641.483 326.875 641.19 327.958 641.131 329.066C641.072 330.174 641.248 331.282 641.648 332.318C642.047 333.353 642.661 334.292 643.449 335.073C644.237 335.854 645.181 336.459 646.219 336.848C647.318 337.261 648.495 337.422 649.665 337.319C650.834 337.217 651.965 336.853 652.975 336.256C653.986 335.658 654.85 334.842 655.504 333.867C656.158 332.891 656.585 331.782 656.754 330.62L659.153 314.161L667.851 272.814L667.307 252.14H649.912C655.845 267.516 652.901 290.197 647.737 314.705Z" fill="#3F3030"/>
<path d="M647.193 254.316H670.569L667.176 228.66C666.716 225.181 665.392 221.873 663.326 219.037C661.26 216.201 658.517 213.928 655.348 212.425L647.193 254.316Z" fill="#EC008C"/>
<path d="M639.051 163.665C639.398 161.34 639.252 158.967 638.622 156.701C637.992 154.436 636.892 152.329 635.394 150.517C632.426 147.003 627.452 144.126 619.198 145.483C601.19 148.444 595.998 163.447 597.762 167.22C599.526 170.993 604.934 179.739 604.934 179.739C604.934 179.739 600.965 171.081 605.272 169.319C609.58 167.557 626.25 160.614 632.068 163.742C633.715 164.569 635.113 165.819 636.121 167.363C637.128 168.908 637.709 170.692 637.803 172.534L639.051 163.665Z" fill="#15161A"/>
<path d="M341.312 91.2111L334.318 94.7627C326.262 78.8876 315.59 64.4853 302.749 52.1613C239.69 -8.50945 139.067 -6.52588 78.4437 56.583C17.8206 119.692 19.8026 220.394 82.8619 281.064C94.8639 292.635 108.614 302.239 123.605 309.523L120.183 316.586C96.4217 305.039 75.7465 288 59.8659 266.875C43.9853 245.751 33.3552 221.148 28.854 195.099C24.3527 169.05 26.1095 142.303 33.9791 117.068C41.8487 91.8334 55.6053 68.8347 74.1123 49.9724C92.6192 31.11 115.345 16.9256 140.413 8.59105C165.48 0.256474 192.17 -1.98901 218.276 2.04011C244.382 6.06924 269.155 16.2573 290.549 31.7626C311.943 47.2679 329.343 67.6453 341.312 91.2111Z" fill="#2C2D34"/>
<path d="M104.691 237.234C94.4031 247.944 88.7879 262.304 89.0802 277.157C89.3725 292.01 95.5485 306.138 106.249 316.433C116.95 326.729 131.3 332.349 146.141 332.056C160.982 331.763 175.099 325.583 185.386 314.873L195.022 304.843L114.326 227.204L104.691 237.234Z" fill="#2C2D34"/>
<path d="M109.28 221.853C107.082 224.147 105.882 227.219 105.945 230.397C106.007 233.575 107.327 236.598 109.614 238.803L183.627 310.013C185.917 312.216 188.988 313.419 192.163 313.356C195.339 313.293 198.36 311.971 200.562 309.679C202.763 307.387 203.965 304.314 203.902 301.135C203.84 297.957 202.518 294.933 200.228 292.73L126.215 221.52L109.28 221.853ZM109.28 221.853C111.483 219.565 114.503 218.245 117.678 218.182C120.853 218.12 123.923 219.32 126.214 221.519L109.28 221.853Z" fill="#2C2D34" stroke="#FF008C"/>
<path d="M330.907 163.386L340.542 153.355C350.83 142.646 356.445 128.285 356.153 113.433C355.86 98.5798 349.684 84.4517 338.983 74.1561C333.685 69.0582 327.435 65.0548 320.59 62.3742C313.746 59.6937 306.441 58.3886 299.092 58.5334C284.251 58.826 270.134 65.0068 259.846 75.7161L250.211 85.7467L330.907 163.386Z" fill="#2C2D34"/>
<path d="M244.671 80.9107C242.473 83.2042 241.274 86.2768 241.336 89.4543C241.399 92.632 242.718 95.655 245.005 97.8602L319.018 169.07C321.309 171.27 324.379 172.471 327.553 172.407C330.727 172.343 333.746 171.021 335.947 168.73C338.147 166.439 339.349 163.368 339.288 160.191C339.226 157.014 337.907 153.991 335.62 151.787L244.671 80.9107ZM244.671 80.9107C246.875 78.6223 249.895 77.3021 253.07 77.2395C256.244 77.1769 259.314 78.3771 261.606 80.5768L244.671 80.9107ZM261.606 80.5772L335.619 151.787L261.606 80.5772Z" fill="#2C2D34" stroke="#FF008C"/>
<path d="M275.532 245.13V239.344C275.532 239.344 300.759 225.143 321.257 239.344V244.604L275.532 245.13Z" fill="#191A1D"/>
<path d="M505.205 245.13V239.344C505.205 239.344 530.432 225.143 550.929 239.344V244.604L505.205 245.13Z" fill="#191A1D"/>
<path d="M351.214 244.604H326.512C326.512 244.604 320.206 237.24 299.183 237.766C278.16 238.292 273.956 244.604 273.956 244.604C273.956 244.604 253.196 258.542 248.466 275.9C248.466 275.9 222.976 352.43 222.45 412.391C221.925 472.353 245.05 480.769 257.138 482.347C269.226 483.924 290.774 481.821 311.797 428.697L320.731 397.664C320.731 397.664 324.813 381.786 330 384.514C355 397.664 376.967 384.514 376.967 384.514H447.918C447.918 384.514 471.569 399.242 493.117 387.67C493.117 387.67 501.526 376.625 509.41 413.969C509.41 413.969 533.586 490.762 570.901 482.873C608.216 474.983 604.012 410.813 604.012 410.813C604.012 410.813 599.019 312.718 578.522 278.004C578.522 278.004 558.813 241.974 545.674 240.396C545.674 240.396 517.293 235.136 506.256 239.87L499.95 245.13L351.214 244.604Z" fill="#2C2D34"/>
<path d="M293.927 341.91C319.18 341.91 339.652 321.423 339.652 296.15C339.652 270.877 319.18 250.39 293.927 250.39C268.675 250.39 248.203 270.877 248.203 296.15C248.203 321.423 268.675 341.91 293.927 341.91Z" fill="#191A1D"/>
<path d="M532.535 341.91C557.788 341.91 578.259 321.423 578.259 296.15C578.259 270.877 557.788 250.39 532.535 250.39C507.282 250.39 486.811 270.877 486.811 296.15C486.811 321.423 507.282 341.91 532.535 341.91Z" fill="#191A1D"/>
<path d="M301.568 285.568L301.568 285.567L301.564 285.571L295.468 290.967C295.468 290.967 295.468 290.967 295.467 290.968C295.043 291.342 294.496 291.548 293.93 291.548C293.364 291.548 292.817 291.342 292.392 290.967C292.392 290.967 292.392 290.967 292.392 290.967L286.286 285.571L286.285 285.571C286.039 285.354 285.842 285.088 285.707 284.789C285.571 284.491 285.5 284.168 285.498 283.84V268.994C285.499 268.377 285.745 267.786 286.181 267.35C286.618 266.914 287.209 266.669 287.826 266.669L300.045 266.669L300.046 266.669C300.662 266.668 301.253 266.912 301.689 267.347C302.126 267.782 302.371 268.372 302.373 268.989V283.829C302.37 284.159 302.296 284.485 302.158 284.784C302.019 285.084 301.818 285.351 301.568 285.568Z" fill="#2C2D34" stroke="#FF008C"/>
<path d="M301.564 306.723L301.564 306.723L301.568 306.727C301.818 306.943 302.019 307.21 302.158 307.51C302.296 307.81 302.37 308.135 302.373 308.465V323.3C302.371 323.917 302.126 324.507 301.689 324.942C301.253 325.378 300.662 325.621 300.046 325.62H300.045H287.816C287.2 325.619 286.61 325.373 286.175 324.936C285.741 324.5 285.497 323.908 285.498 323.291V323.29V308.459C285.5 308.132 285.571 307.808 285.707 307.51C285.842 307.212 286.04 306.946 286.285 306.729L286.286 306.729L292.392 301.332C292.392 301.332 292.392 301.332 292.392 301.332C292.817 300.958 293.364 300.751 293.93 300.751C294.496 300.751 295.043 300.958 295.468 301.332C295.468 301.332 295.468 301.332 295.468 301.332L301.564 306.723Z" fill="#2C2D34" stroke="#FF008C"/>
<path d="M283.362 303.803L283.36 303.806C283.145 304.053 282.88 304.251 282.582 304.389C282.286 304.525 281.964 304.598 281.637 304.602H266.809C266.193 304.601 265.603 304.355 265.168 303.918C264.734 303.481 264.49 302.89 264.491 302.273V302.272V290.043C264.491 289.426 264.736 288.834 265.172 288.397C265.607 287.961 266.198 287.715 266.814 287.713H281.633C281.96 287.716 282.283 287.787 282.581 287.922C282.879 288.058 283.145 288.255 283.362 288.501L283.362 288.501L288.754 294.613C289.128 295.038 289.334 295.586 289.334 296.152C289.334 296.719 289.128 297.266 288.754 297.692C288.754 297.692 288.754 297.692 288.754 297.692L283.362 303.803Z" fill="#2C2D34" stroke="#FF008C"/>
<path d="M304.499 303.805L304.498 303.804L299.117 297.687L299.116 297.686C298.741 297.261 298.534 296.714 298.534 296.147C298.534 295.58 298.741 295.033 299.116 294.608L299.116 294.608L304.508 288.496L304.509 288.496C304.725 288.25 304.991 288.053 305.289 287.917C305.587 287.781 305.91 287.71 306.237 287.708L321.057 287.708L321.058 287.708C321.673 287.707 322.265 287.951 322.701 288.386C323.137 288.821 323.383 289.412 323.384 290.028V302.267V302.268C323.385 302.885 323.142 303.476 322.707 303.913C322.272 304.35 321.682 304.596 321.066 304.597H306.242C305.912 304.596 305.586 304.525 305.285 304.389C304.985 304.252 304.717 304.053 304.499 303.805Z" fill="#2C2D34" stroke="#FF008C"/>
<path d="M355.944 379.255C374.23 379.255 389.054 364.419 389.054 346.118C389.054 327.817 374.23 312.981 355.944 312.981C337.657 312.981 322.833 327.817 322.833 346.118C322.833 364.419 337.657 379.255 355.944 379.255Z" fill="#191A1D"/>
<path d="M470.518 379.255C488.805 379.255 503.629 364.419 503.629 346.118C503.629 327.817 488.805 312.981 470.518 312.981C452.231 312.981 437.407 327.817 437.407 346.118C437.407 364.419 452.231 379.255 470.518 379.255Z" fill="#191A1D"/>
<path d="M355.944 368.209C368.135 368.209 378.018 358.318 378.018 346.118C378.018 333.917 368.135 324.027 355.944 324.027C343.753 324.027 333.87 333.917 333.87 346.118C333.87 358.318 343.753 368.209 355.944 368.209Z" fill="#2C2D34"/>
<mask id="path-31-inside-1" fill="white">
<path d="M355.944 361.371C352.929 361.371 349.982 360.477 347.476 358.801C344.969 357.125 343.016 354.742 341.862 351.955C340.709 349.168 340.407 346.101 340.995 343.142C341.583 340.183 343.035 337.465 345.166 335.332C347.298 333.199 350.014 331.746 352.97 331.157C355.927 330.569 358.991 330.871 361.776 332.025C364.561 333.18 366.942 335.135 368.616 337.643C370.291 340.152 371.185 343.101 371.185 346.118C371.18 350.162 369.573 354.039 366.716 356.899C363.859 359.758 359.984 361.367 355.944 361.371ZM355.944 331.916C353.137 331.916 350.393 332.749 348.06 334.31C345.726 335.87 343.908 338.088 342.834 340.683C341.759 343.278 341.478 346.134 342.026 348.888C342.574 351.643 343.925 354.174 345.91 356.16C347.894 358.146 350.423 359.498 353.175 360.046C355.928 360.594 358.781 360.313 361.374 359.238C363.967 358.163 366.183 356.343 367.742 354.008C369.302 351.672 370.134 348.927 370.134 346.118C370.13 342.353 368.633 338.743 365.973 336.081C363.313 333.418 359.706 331.921 355.944 331.916Z"/>
</mask>
<path d="M355.944 361.371C352.929 361.371 349.982 360.477 347.476 358.801C344.969 357.125 343.016 354.742 341.862 351.955C340.709 349.168 340.407 346.101 340.995 343.142C341.583 340.183 343.035 337.465 345.166 335.332C347.298 333.199 350.014 331.746 352.97 331.157C355.927 330.569 358.991 330.871 361.776 332.025C364.561 333.18 366.942 335.135 368.616 337.643C370.291 340.152 371.185 343.101 371.185 346.118C371.18 350.162 369.573 354.039 366.716 356.899C363.859 359.758 359.984 361.367 355.944 361.371ZM355.944 331.916C353.137 331.916 350.393 332.749 348.06 334.31C345.726 335.87 343.908 338.088 342.834 340.683C341.759 343.278 341.478 346.134 342.026 348.888C342.574 351.643 343.925 354.174 345.91 356.16C347.894 358.146 350.423 359.498 353.175 360.046C355.928 360.594 358.781 360.313 361.374 359.238C363.967 358.163 366.183 356.343 367.742 354.008C369.302 351.672 370.134 348.927 370.134 346.118C370.13 342.353 368.633 338.743 365.973 336.081C363.313 333.418 359.706 331.921 355.944 331.916Z" fill="#FF008C"/>
<path d="M371.185 346.118L373.185 346.12V346.118L371.185 346.118ZM370.134 346.118H372.134L372.134 346.116L370.134 346.118ZM355.944 359.371C353.325 359.371 350.765 358.594 348.588 357.138L346.364 360.463C349.2 362.359 352.533 363.371 355.944 363.371L355.944 359.371ZM348.588 357.138C346.41 355.682 344.713 353.612 343.71 351.19L340.014 352.72C341.319 355.872 343.529 358.567 346.364 360.463L348.588 357.138ZM343.71 351.19C342.708 348.768 342.446 346.103 342.957 343.532L339.033 342.752C338.368 346.099 338.71 349.567 340.014 352.72L343.71 351.19ZM342.957 343.532C343.468 340.961 344.729 338.599 346.581 336.746L343.751 333.918C341.34 336.331 339.699 339.406 339.033 342.752L342.957 343.532ZM346.581 336.746C348.433 334.892 350.792 333.63 353.361 333.119L352.58 329.196C349.235 329.862 346.163 331.505 343.751 333.918L346.581 336.746ZM353.361 333.119C355.929 332.608 358.591 332.87 361.01 333.873L362.542 330.178C359.391 328.872 355.924 328.53 352.58 329.196L353.361 333.119ZM361.01 333.873C363.43 334.876 365.498 336.574 366.953 338.754L370.28 336.533C368.385 333.696 365.693 331.484 362.542 330.178L361.01 333.873ZM366.953 338.754C368.408 340.934 369.185 343.496 369.185 346.118L373.185 346.118C373.185 342.706 372.174 339.37 370.28 336.533L366.953 338.754ZM369.185 346.116C369.181 349.63 367.784 353 365.301 355.485L368.131 358.312C371.362 355.078 373.18 350.693 373.185 346.12L369.185 346.116ZM365.301 355.485C362.818 357.97 359.452 359.367 355.941 359.371L355.946 363.371C360.517 363.366 364.899 361.546 368.131 358.312L365.301 355.485ZM355.944 329.916C352.741 329.916 349.611 330.867 346.948 332.647L349.172 335.972C351.176 334.632 353.533 333.916 355.944 333.916V329.916ZM346.948 332.647C344.286 334.428 342.211 336.958 340.986 339.918L344.681 341.448C345.604 339.218 347.167 337.313 349.172 335.972L346.948 332.647ZM340.986 339.918C339.76 342.879 339.44 346.136 340.064 349.278L343.988 348.499C343.517 346.131 343.759 343.678 344.681 341.448L340.986 339.918ZM340.064 349.278C340.689 352.421 342.231 355.307 344.495 357.573L347.324 354.746C345.619 353.04 344.458 350.866 343.988 348.499L340.064 349.278ZM344.495 357.573C346.759 359.839 349.644 361.383 352.785 362.008L353.566 358.085C351.201 357.614 349.029 356.452 347.324 354.746L344.495 357.573ZM352.785 362.008C355.926 362.633 359.181 362.312 362.14 361.086L360.608 357.391C358.381 358.314 355.93 358.556 353.566 358.085L352.785 362.008ZM362.14 361.086C365.098 359.859 367.627 357.783 369.406 355.118L366.079 352.897C364.739 354.904 362.835 356.467 360.608 357.391L362.14 361.086ZM369.406 355.118C371.185 352.454 372.134 349.322 372.134 346.118H368.134C368.134 348.531 367.419 350.891 366.079 352.897L369.406 355.118ZM372.134 346.116C372.129 341.821 370.422 337.704 367.388 334.667L364.558 337.494C366.844 339.782 368.13 342.884 368.134 346.12L372.134 346.116ZM367.388 334.667C364.353 331.63 360.238 329.921 355.946 329.916L355.941 333.916C359.173 333.92 362.272 335.207 364.558 337.494L367.388 334.667Z" fill="#FF008C" mask="url(#path-31-inside-1)"/>
<path d="M470.517 368.209C482.708 368.209 492.591 358.318 492.591 346.118C492.591 333.917 482.708 324.027 470.517 324.027C458.326 324.027 448.443 333.917 448.443 346.118C448.443 358.318 458.326 368.209 470.517 368.209Z" fill="#2C2D34"/>
<mask id="path-34-inside-2" fill="white">
<path d="M470.518 361.371C467.503 361.371 464.557 360.477 462.05 358.801C459.544 357.125 457.59 354.742 456.437 351.955C455.283 349.168 454.981 346.101 455.569 343.142C456.157 340.183 457.609 337.465 459.74 335.332C461.872 333.199 464.588 331.746 467.544 331.157C470.501 330.569 473.565 330.871 476.35 332.025C479.135 333.18 481.516 335.135 483.191 337.643C484.865 340.152 485.759 343.101 485.759 346.118C485.755 350.162 484.147 354.039 481.29 356.898C478.433 359.758 474.559 361.367 470.518 361.371ZM470.518 331.916C467.711 331.916 464.968 332.749 462.634 334.31C460.301 335.87 458.482 338.088 457.408 340.683C456.334 343.278 456.053 346.134 456.6 348.888C457.148 351.643 458.499 354.174 460.484 356.16C462.468 358.146 464.997 359.498 467.749 360.046C470.502 360.594 473.355 360.313 475.948 359.238C478.541 358.163 480.757 356.343 482.317 354.008C483.876 351.672 484.708 348.927 484.708 346.118C484.704 342.353 483.207 338.743 480.547 336.081C477.887 333.418 474.28 331.921 470.518 331.916Z"/>
</mask>
<path d="M470.518 361.371C467.503 361.371 464.557 360.477 462.05 358.801C459.544 357.125 457.59 354.742 456.437 351.955C455.283 349.168 454.981 346.101 455.569 343.142C456.157 340.183 457.609 337.465 459.74 335.332C461.872 333.199 464.588 331.746 467.544 331.157C470.501 330.569 473.565 330.871 476.35 332.025C479.135 333.18 481.516 335.135 483.191 337.643C484.865 340.152 485.759 343.101 485.759 346.118C485.755 350.162 484.147 354.039 481.29 356.898C478.433 359.758 474.559 361.367 470.518 361.371ZM470.518 331.916C467.711 331.916 464.968 332.749 462.634 334.31C460.301 335.87 458.482 338.088 457.408 340.683C456.334 343.278 456.053 346.134 456.6 348.888C457.148 351.643 458.499 354.174 460.484 356.16C462.468 358.146 464.997 359.498 467.749 360.046C470.502 360.594 473.355 360.313 475.948 359.238C478.541 358.163 480.757 356.343 482.317 354.008C483.876 351.672 484.708 348.927 484.708 346.118C484.704 342.353 483.207 338.743 480.547 336.081C477.887 333.418 474.28 331.921 470.518 331.916Z" fill="#FF008C"/>
<path d="M470.518 361.371L470.518 363.371H470.52L470.518 361.371ZM485.759 346.118L487.759 346.12V346.118L485.759 346.118ZM484.708 346.118H486.708L486.708 346.116L484.708 346.118ZM470.518 359.371C467.899 359.371 465.339 358.594 463.162 357.138L460.938 360.463C463.774 362.359 467.107 363.371 470.518 363.371L470.518 359.371ZM463.162 357.138C460.984 355.682 459.287 353.612 458.285 351.19L454.589 352.72C455.893 355.872 458.103 358.567 460.938 360.463L463.162 357.138ZM458.285 351.19C457.282 348.768 457.02 346.103 457.531 343.532L453.608 342.752C452.942 346.099 453.284 349.567 454.589 352.72L458.285 351.19ZM457.531 343.532C458.042 340.961 459.303 338.599 461.155 336.746L458.326 333.918C455.915 336.331 454.273 339.406 453.608 342.752L457.531 343.532ZM461.155 336.746C463.007 334.892 465.367 333.63 467.935 333.119L467.154 329.196C463.809 329.862 460.737 331.505 458.326 333.918L461.155 336.746ZM467.935 333.119C470.503 332.608 473.165 332.87 475.585 333.873L477.116 330.178C473.966 328.872 470.499 328.53 467.154 329.196L467.935 333.119ZM475.585 333.873C478.004 334.876 480.072 336.574 481.527 338.754L484.854 336.533C482.96 333.696 480.267 331.484 477.116 330.178L475.585 333.873ZM481.527 338.754C482.982 340.934 483.759 343.496 483.759 346.118L487.759 346.118C487.759 342.706 486.748 339.37 484.854 336.533L481.527 338.754ZM483.759 346.116C483.755 349.63 482.358 353 479.875 355.485L482.705 358.312C485.936 355.078 487.754 350.693 487.759 346.12L483.759 346.116ZM479.875 355.485C477.392 357.97 474.026 359.367 470.515 359.371L470.52 363.371C475.091 363.366 479.473 361.546 482.705 358.312L479.875 355.485ZM470.518 329.916C467.315 329.916 464.185 330.867 461.522 332.647L463.746 335.972C465.75 334.632 468.107 333.916 470.518 333.916V329.916ZM461.522 332.647C458.86 334.428 456.785 336.958 455.56 339.918L459.256 341.448C460.178 339.218 461.741 337.313 463.746 335.972L461.522 332.647ZM455.56 339.918C454.335 342.879 454.014 346.136 454.639 349.278L458.562 348.499C458.091 346.131 458.333 343.678 459.256 341.448L455.56 339.918ZM454.639 349.278C455.263 352.421 456.805 355.308 459.069 357.573L461.899 354.746C460.194 353.04 459.032 350.866 458.562 348.499L454.639 349.278ZM459.069 357.573C461.333 359.839 464.218 361.383 467.359 362.008L468.14 358.085C465.775 357.614 463.603 356.452 461.899 354.746L459.069 357.573ZM467.359 362.008C470.5 362.633 473.755 362.312 476.714 361.086L475.182 357.391C472.955 358.314 470.504 358.556 468.14 358.085L467.359 362.008ZM476.714 361.086C479.673 359.859 482.201 357.783 483.98 355.118L480.653 352.897C479.314 354.904 477.41 356.467 475.182 357.391L476.714 361.086ZM483.98 355.118C485.759 352.454 486.708 349.322 486.708 346.118H482.708C482.708 348.531 481.993 350.891 480.653 352.897L483.98 355.118ZM486.708 346.116C486.703 341.821 484.997 337.704 481.962 334.667L479.132 337.494C481.418 339.782 482.704 342.884 482.708 346.12L486.708 346.116ZM481.962 334.667C478.927 331.63 474.812 329.921 470.52 329.916L470.516 333.916C473.748 333.92 476.846 335.207 479.132 337.494L481.962 334.667Z" fill="#FF008C" mask="url(#path-34-inside-2)"/>
<path d="M414.282 359.267C419.506 359.267 423.742 355.028 423.742 349.8C423.742 344.571 419.506 340.332 414.282 340.332C409.057 340.332 404.821 344.571 404.821 349.8C404.821 355.028 409.057 359.267 414.282 359.267Z" fill="#191A1D"/>
<path d="M399.823 320.266C400.964 320.266 401.889 319.341 401.889 318.199C401.889 317.057 400.964 316.132 399.823 316.132C398.683 316.132 397.758 317.057 397.758 318.199C397.758 319.341 398.683 320.266 399.823 320.266Z" fill="#191A1D"/>
<path d="M407.56 320.266C408.7 320.266 409.625 319.341 409.625 318.199C409.625 317.057 408.7 316.132 407.56 316.132C406.419 316.132 405.494 317.057 405.494 318.199C405.494 319.341 406.419 320.266 407.56 320.266Z" fill="#191A1D"/>
<path d="M406.529 330.075C407.67 330.075 408.595 329.15 408.595 328.008C408.595 326.867 407.67 325.941 406.529 325.941C405.389 325.941 404.464 326.867 404.464 328.008C404.464 329.15 405.389 330.075 406.529 330.075Z" fill="#191A1D"/>
<path d="M413.757 330.338C414.918 330.338 415.859 329.396 415.859 328.235C415.859 327.073 414.918 326.131 413.757 326.131C412.596 326.131 411.654 327.073 411.654 328.235C411.654 329.396 412.596 330.338 413.757 330.338Z" fill="#191A1D"/>
<path d="M420.973 330.075C422.113 330.075 423.038 329.15 423.038 328.008C423.038 326.867 422.113 325.941 420.973 325.941C419.832 325.941 418.907 326.867 418.907 328.008C418.907 329.15 419.832 330.075 420.973 330.075Z" fill="#191A1D"/>
<path d="M403.435 325.431C404.575 325.431 405.5 324.506 405.5 323.364C405.5 322.222 404.575 321.297 403.435 321.297C402.294 321.297 401.369 322.222 401.369 323.364C401.369 324.506 402.294 325.431 403.435 325.431Z" fill="#191A1D"/>
<path d="M410.077 325.605C411.238 325.605 412.179 324.663 412.179 323.501C412.179 322.339 411.238 321.397 410.077 321.397C408.916 321.397 407.975 322.339 407.975 323.501C407.975 324.663 408.916 325.605 410.077 325.605Z" fill="#191A1D"/>
<path d="M416.91 325.605C418.071 325.605 419.012 324.663 419.012 323.501C419.012 322.339 418.071 321.397 416.91 321.397C415.749 321.397 414.808 322.339 414.808 323.501C414.808 324.663 415.749 325.605 416.91 325.605Z" fill="#191A1D"/>
<path d="M424.068 325.431C425.209 325.431 426.134 324.506 426.134 323.364C426.134 322.222 425.209 321.297 424.068 321.297C422.928 321.297 422.003 322.222 422.003 323.364C422.003 324.506 422.928 325.431 424.068 325.431Z" fill="#191A1D"/>
<path d="M413.757 320.345C414.918 320.345 415.859 319.403 415.859 318.241C415.859 317.079 414.918 316.137 413.757 316.137C412.596 316.137 411.654 317.079 411.654 318.241C411.654 319.403 412.596 320.345 413.757 320.345Z" fill="#191A1D"/>
<path d="M421.114 320.345C422.275 320.345 423.216 319.403 423.216 318.241C423.216 317.079 422.275 316.137 421.114 316.137C419.953 316.137 419.012 317.079 419.012 318.241C419.012 319.403 419.953 320.345 421.114 320.345Z" fill="#191A1D"/>
<path d="M427.163 320.266C428.304 320.266 429.229 319.341 429.229 318.199C429.229 317.057 428.304 316.132 427.163 316.132C426.022 316.132 425.098 317.057 425.098 318.199C425.098 319.341 426.022 320.266 427.163 320.266Z" fill="#191A1D"/>
<path d="M335.71 249.087C334.738 249.088 333.806 249.475 333.118 250.163C332.431 250.851 332.044 251.783 332.043 252.756V263.802C332.044 264.775 332.431 265.708 333.118 266.396C333.806 267.084 334.738 267.471 335.71 267.472H338.338C339.31 267.471 340.242 267.084 340.929 266.396C341.617 265.708 342.004 264.775 342.005 263.802V252.756C342.004 251.783 341.617 250.851 340.929 250.163C340.242 249.475 339.31 249.088 338.338 249.087H335.71Z" fill="#191A1D"/>
<path d="M489.175 249.087C488.202 249.088 487.27 249.475 486.583 250.163C485.895 250.851 485.509 251.783 485.508 252.756V263.802C485.509 264.775 485.895 265.708 486.583 266.396C487.27 267.084 488.202 267.471 489.175 267.472H491.803C492.775 267.471 493.707 267.084 494.394 266.396C495.082 265.708 495.468 264.775 495.469 263.802V252.756C495.468 251.783 495.082 250.851 494.394 250.163C493.707 249.475 492.775 249.088 491.803 249.087H489.175Z" fill="#191A1D"/>
<path d="M533.06 280.896C540.026 280.896 545.673 275.245 545.673 268.273C545.673 261.301 540.026 255.649 533.06 255.649C526.094 255.649 520.446 261.301 520.446 268.273C520.446 275.245 526.094 280.896 533.06 280.896Z" fill="#2C2D34"/>
<path d="M506.256 307.721C513.222 307.721 518.87 302.07 518.87 295.098C518.87 288.126 513.222 282.474 506.256 282.474C499.29 282.474 493.643 288.126 493.643 295.098C493.643 302.07 499.29 307.721 506.256 307.721Z" fill="#2C2D34"/>
<path d="M560.915 306.143C567.882 306.143 573.529 300.492 573.529 293.52C573.529 286.548 567.882 280.896 560.915 280.896C553.949 280.896 548.302 286.548 548.302 293.52C548.302 300.492 553.949 306.143 560.915 306.143Z" fill="#2C2D34"/>
<path d="M535.162 334.02C542.129 334.02 547.776 328.369 547.776 321.397C547.776 314.425 542.129 308.773 535.162 308.773C528.196 308.773 522.549 314.425 522.549 321.397C522.549 328.369 528.196 334.02 535.162 334.02Z" fill="#2C2D34"/>
<path d="M533.297 269.442L535.859 266.873C536.484 266.246 537.5 266.246 538.125 266.873C538.749 267.499 538.749 268.518 538.125 269.145L533.297 273.985" fill="url(#paint0_linear)"/>
<path d="M533.296 269.442L530.734 266.873C530.109 266.246 529.093 266.246 528.468 266.873C527.844 267.499 527.844 268.518 528.468 269.145L533.296 273.985" fill="url(#paint1_linear)"/>
<path d="M530.925 264.367L533.296 266.735L535.657 264.367L533.296 262L530.925 264.367Z" fill="url(#paint2_linear)"/>
<path d="M559.531 293.311L562.093 295.88C562.718 296.506 562.718 297.525 562.093 298.152C561.469 298.778 560.452 298.778 559.828 298.152L555 293.311" fill="url(#paint3_linear)"/>
<path d="M559.531 293.311L562.093 290.742C562.718 290.115 562.718 289.096 562.093 288.47C561.469 287.843 560.452 287.843 559.828 288.47L555 293.311" fill="url(#paint4_linear)"/>
<path d="M562.199 293.311L564.56 295.678L566.921 293.311L564.56 290.933L562.199 293.311Z" fill="url(#paint5_linear)"/>
<path d="M507.368 295.311L504.806 292.742C504.182 292.115 504.182 291.096 504.806 290.47C505.431 289.843 506.447 289.843 507.072 290.47L511.9 295.311" fill="url(#paint6_linear)"/>
<path d="M507.369 295.311L504.807 297.88C504.183 298.506 504.183 299.525 504.807 300.152C505.432 300.778 506.448 300.778 507.073 300.152L511.901 295.311" fill="url(#paint7_linear)"/>
<path d="M500 295.311L502.361 297.678L504.722 295.311L502.361 292.933L500 295.311Z" fill="url(#paint8_linear)"/>
<path d="M535.297 322.41L537.859 319.841C538.484 319.215 539.5 319.215 540.125 319.841C540.749 320.467 540.749 321.486 540.125 322.113L535.297 326.954" fill="url(#paint9_linear)"/>
<path d="M535.296 322.41L532.734 319.841C532.109 319.215 531.093 319.215 530.468 319.841C529.844 320.467 529.844 321.486 530.468 322.113L535.296 326.954" fill="url(#paint10_linear)"/>
<path d="M535.296 319.735L537.657 317.367L535.296 315L532.925 317.367L535.296 319.735Z" fill="url(#paint11_linear)"/>
<path d="M359.491 241.723C356.673 241.726 353.971 242.848 351.978 244.843C349.985 246.837 348.864 249.541 348.86 252.362V299.437C348.864 302.258 349.985 304.962 351.978 306.956C353.971 308.951 356.673 310.073 359.491 310.076H467.495C470.313 310.073 473.015 308.951 475.008 306.956C477.001 304.962 478.122 302.258 478.126 299.437V252.362C478.122 249.541 477.001 246.837 475.008 244.843C473.015 242.848 470.313 241.726 467.495 241.723H359.491Z" fill="#191A1D"/>
<path d="M111.718 121.532C83.0216 129.45 51.5984 135.41 40.3389 126.164C46.5035 115.893 50.0591 105.769 50.3608 95.8299C50.4287 91.2822 52.2692 86.9409 55.4898 83.7318C57.6219 81.6704 60.1955 80.1224 63.0149 79.2055C65.8344 78.2886 68.8255 78.0269 71.7612 78.4403L79.2085 79.4862C79.4592 79.5214 79.7086 79.5613 79.9566 79.606C83.5312 80.2838 86.804 82.0648 89.3155 84.6991C91.8271 87.3334 93.4512 90.6886 93.96 94.2939C95.5291 105.072 100.805 114.402 111.718 121.532Z" fill="#15161A"/>
<path d="M139.398 223.783L150.554 226.085C151.406 226.261 152.209 226.625 152.903 227.15C153.597 227.674 154.166 228.347 154.568 229.12C154.97 229.892 155.195 230.744 155.227 231.614C155.258 232.484 155.096 233.35 154.752 234.15C154.419 234.923 153.924 235.615 153.3 236.179C152.677 236.743 151.939 237.166 151.137 237.42C150.336 237.674 149.489 237.752 148.654 237.649C147.82 237.546 147.017 237.264 146.301 236.823L129.237 226.32L100.252 158.129L115.265 153.783L139.398 223.783Z" fill="#A0616A"/>
<path d="M59.9277 313.263L51.4808 315.721L45.0869 302.506L51.5888 299.115L59.9277 313.263Z" fill="#A0616A"/>
<path d="M55.6355 369.884L45.2715 367.138L46.894 349.319L55.8132 349.868L55.6355 369.884Z" fill="#A0616A"/>
<path d="M56.7163 300.91L45.7394 308.139L3.52107 260.347C2.60531 259.311 1.92907 258.085 1.54046 256.757C1.15185 255.429 1.06042 254.032 1.27267 252.664C1.48492 251.297 1.99564 249.993 2.76849 248.846C3.54134 247.699 4.55733 246.736 5.74419 246.026L58.3378 214.576L66.3932 237.734L39.0075 263.454L56.7163 300.91Z" fill="#15161A"/>
<path d="M65.961 325.926C65.9335 325.962 65.9059 325.998 65.8782 326.034C65.1767 330.144 63.9446 333.894 61.1929 336.609C60.3771 338.45 58.9123 339.926 57.0781 340.755C55.2439 341.584 53.1688 341.708 51.2491 341.103C49.4387 340.533 47.8826 339.351 46.8469 337.759C45.8112 336.167 45.3603 334.264 45.5713 332.377L47.6224 314.028C52.5428 312.896 56.2955 310.096 58.1949 304.648L62.9769 307.907C64.392 308.864 65.5975 310.1 66.5197 311.538C67.4419 312.977 68.0615 314.588 68.3408 316.275C68.62 317.961 68.553 319.686 68.1439 321.346C67.7347 323.005 66.992 324.564 65.961 325.926Z" fill="#2F2E41"/>
<path d="M71.1647 117.603C80.4957 117.603 88.0599 110.033 88.0599 100.695C88.0599 91.3564 80.4957 83.7863 71.1647 83.7863C61.8338 83.7863 54.2695 91.3564 54.2695 100.695C54.2695 110.033 61.8338 117.603 71.1647 117.603Z" fill="#A0616A"/>
<path d="M85.7955 127.724L59.1604 149.801L57.0859 140.714L61.7349 133.621C63.0251 126.663 62.1922 118.99 59.9752 110.85L77.3527 110.866C78.1029 117.444 80.6616 123.182 85.7955 127.724Z" fill="#A0616A"/>
<path d="M93.2944 185.633L57.3368 196.595L54.5393 183.796C47.8007 174.741 44.8715 166.476 49.28 159.733L47.0615 149.583C53.4256 144.568 58.4301 139.438 61.1781 134.114L83.3015 125.463L99.5652 126.464L104.368 142.571L93.2944 185.633Z" fill="#EC008C"/>
<path d="M118.84 155.584C111.175 155.503 103.674 157.803 97.3701 162.167L99.5652 126.464C101.793 126.762 103.905 127.635 105.694 128.998C107.483 130.36 108.886 132.166 109.766 134.236L118.84 155.584Z" fill="#EC008C"/>
<path d="M56.6043 354.133L45.1914 351.322L46.8713 254.271L62.1965 237.476L58.766 216.183L56.5462 192.33L93.9808 183.04C106.634 206.033 114.282 226.938 103.118 239.995L56.6043 354.133Z" fill="#15161A"/>
<path d="M53.9829 386.901C53.9317 386.921 53.8804 386.941 53.8291 386.961C50.5152 390.812 46.8741 393.952 42.2962 395.056C40.2882 396.465 37.8318 397.085 35.396 396.797C32.9603 396.509 30.7159 395.333 29.0914 393.495C27.5593 391.76 26.6769 389.547 26.5951 387.234C26.5133 384.92 27.2373 382.65 28.6431 380.812L42.3068 362.944C48.1551 364.856 53.8318 364.293 59.2363 359.799L62.1824 366.21C63.059 368.099 63.5418 370.147 63.6014 372.229C63.6609 374.311 63.2959 376.384 62.5286 378.32C61.7613 380.256 60.6078 382.016 59.1385 383.491C57.6693 384.966 55.915 386.127 53.9829 386.901Z" fill="#2C2D34"/>
<path d="M12.2912 235.457L2.27377 244.04C1.44248 244.753 0.804325 245.663 0.418465 246.688C0.0326058 247.713 -0.0884752 248.819 0.0664441 249.903C0.221363 250.987 0.647272 252.015 1.30469 252.89C1.9621 253.766 2.82974 254.461 3.82719 254.912C5.32875 255.59 7.03164 255.672 8.59161 255.142C10.1516 254.612 11.4522 253.509 12.2307 252.056L19.4747 238.534L52.6956 177.863L40.2012 175.512L12.2912 235.457Z" fill="#A0616A"/>
<path d="M54.6977 179.567C48.209 177.607 42.1309 176.452 37.417 177.976C38.4051 165.739 40.4417 154.807 47.0619 149.583L56.4731 150.689L54.6977 179.567Z" fill="#EC008C"/>
<path d="M90.0252 96.7739L53.8896 94.5487L54.3343 87.3159C66.9485 78.8037 78.9937 79.5454 90.4699 89.5411L90.0252 96.7739Z" fill="#15161A"/>
<defs>
<linearGradient id="paint0_linear" x1="533.292" y1="270.193" x2="538.587" y2="270.193" gradientUnits="userSpaceOnUse">
<stop stop-color="#FF008C"/>
<stop offset="1" stop-color="#BD0084"/>
</linearGradient>
<linearGradient id="paint1_linear" x1="527.997" y1="270.193" x2="533.292" y2="270.193" gradientUnits="userSpaceOnUse">
<stop stop-color="#FF008C"/>
<stop offset="1" stop-color="#BD0084"/>
</linearGradient>
<linearGradient id="paint2_linear" x1="532.113" y1="263.187" x2="534.482" y2="265.55" gradientUnits="userSpaceOnUse">
<stop stop-color="#FF008C"/>
<stop offset="1" stop-color="#BD0084"/>
</linearGradient>
<linearGradient id="paint3_linear" x1="558.782" y1="298.615" x2="558.782" y2="293.306" gradientUnits="userSpaceOnUse">
<stop stop-color="#FF008C"/>
<stop offset="1" stop-color="#BD0084"/>
</linearGradient>
<linearGradient id="paint4_linear" x1="558.782" y1="293.306" x2="558.782" y2="287.997" gradientUnits="userSpaceOnUse">
<stop stop-color="#FF008C"/>
<stop offset="1" stop-color="#BD0084"/>
</linearGradient>
<linearGradient id="paint5_linear" x1="563.38" y1="292.123" x2="565.75" y2="294.486" gradientUnits="userSpaceOnUse">
<stop stop-color="#FF008C"/>
<stop offset="1" stop-color="#BD0084"/>
</linearGradient>
<linearGradient id="paint6_linear" x1="508.117" y1="295.306" x2="508.117" y2="289.997" gradientUnits="userSpaceOnUse">
<stop stop-color="#FF008C"/>
<stop offset="1" stop-color="#BD0084"/>
</linearGradient>
<linearGradient id="paint7_linear" x1="508.118" y1="300.615" x2="508.118" y2="295.306" gradientUnits="userSpaceOnUse">
<stop stop-color="#FF008C"/>
<stop offset="1" stop-color="#BD0084"/>
</linearGradient>
<linearGradient id="paint8_linear" x1="501.184" y1="294.123" x2="503.554" y2="296.486" gradientUnits="userSpaceOnUse">
<stop stop-color="#FF008C"/>
<stop offset="1" stop-color="#BD0084"/>
</linearGradient>
<linearGradient id="paint9_linear" x1="540.587" y1="323.157" x2="535.292" y2="323.157" gradientUnits="userSpaceOnUse">
<stop stop-color="#FF008C"/>
<stop offset="1" stop-color="#BD0084"/>
</linearGradient>
<linearGradient id="paint10_linear" x1="535.292" y1="323.157" x2="529.997" y2="323.157" gradientUnits="userSpaceOnUse">
<stop stop-color="#FF008C"/>
<stop offset="1" stop-color="#BD0084"/>
</linearGradient>
<linearGradient id="paint11_linear" x1="534.113" y1="318.545" x2="536.483" y2="316.181" gradientUnits="userSpaceOnUse">
<stop stop-color="#FF008C"/>
<stop offset="1" stop-color="#BD0084"/>
</linearGradient>
</defs>
</svg>
