<svg width="601" height="105" viewBox="0 0 601 105" fill="none" xmlns="http://www.w3.org/2000/svg">
<path d="M88.6002 62.5999C86.8002 63.6999 84.7002 63.8999 83.1002 62.9999C81.1002 61.7999 79.9002 59.0999 79.9002 55.3999V44.0999C79.9002 38.6999 77.8002 34.7999 74.2002 33.7999C68.1002 31.9999 63.5002 39.4999 61.8002 42.2999L51.0002 59.5999V38.2999C50.9002 33.3999 49.3002 30.4999 46.3002 29.5999C44.3002 28.9999 41.3002 29.2999 38.4002 33.6999L14.3002 72.2999C11.1002 66.1999 9.40019 59.3999 9.40019 52.4999C9.40019 29.1999 28.1002 10.2999 51.0002 10.2999C73.9002 10.2999 92.6002 29.1999 92.6002 52.4999V52.5999V52.6999C92.8002 57.1999 91.4002 60.7999 88.6002 62.5999ZM101.8 52.4999V52.3999V52.2999C101.7 23.9999 78.9002 0.899902 51.0002 0.899902C23.0002 0.899902 0.200195 23.9999 0.200195 52.4999C0.200195 80.8999 23.0002 104.1 51.0002 104.1C63.9002 104.1 76.1002 99.1999 85.5002 90.2999C87.4002 88.4999 87.5002 85.5999 85.7002 83.6999C84.0002 81.7999 81.1002 81.6999 79.2002 83.3999C79.2002 83.3999 79.2002 83.3999 79.1002 83.4999C71.5002 90.6999 61.3002 94.7999 50.8002 94.7999C38.5002 94.7999 27.5002 89.3999 19.9002 80.7999L41.6002 45.9999V62.0999C41.6002 69.7999 44.6002 72.2999 47.1002 72.9999C49.6002 73.6999 53.4002 73.1999 57.5002 66.6999L69.4002 47.3999C69.8002 46.7999 70.1002 46.1999 70.5002 45.7999V55.5999C70.5002 62.7999 73.4002 68.5999 78.4002 71.3999C82.9002 73.9999 88.6002 73.6999 93.3002 70.7999C99.1002 66.9999 102.2 60.3999 101.8 52.4999ZM172.6 34.8999C173.8 35.5999 174.9 37.2999 174.9 38.7999C174.9 41.1999 172.9 43.1999 170.6 43.1999C170 43.1999 169.5 42.9999 169 42.8999C166.3 40.8999 162.9 39.5999 159.3 39.5999C150.8 39.5999 145 46.4999 145 55.0999C145 63.6999 150.9 70.4999 159.3 70.4999C163.5 70.4999 167.3 68.7999 170.1 66.0999C170.8 65.5999 171.7 65.2999 172.6 65.2999C174.9 65.2999 176.7 67.0999 176.7 69.3999C176.7 70.8999 175.8 72.1999 174.7 72.8999C170.6 76.3999 165.1 78.6999 159.4 78.6999C146.4 78.6999 135.8 67.9999 135.8 54.7999C135.8 41.5999 146.4 30.8999 159.4 30.8999C164.2 30.7999 168.8 32.2999 172.6 34.8999ZM196.4 44.8999C205.3 44.8999 212.7 52.3999 212.7 61.6999C212.7 70.8999 205.2 78.7999 196.4 78.7999C187.1 78.7999 179.4 70.9999 179.4 61.6999C179.4 52.3999 187.1 44.8999 196.4 44.8999ZM196.3 70.4999C200.2 70.4999 203.5 66.7999 203.5 61.7999C203.5 56.7999 200.2 53.5999 196.3 53.5999C192.1 53.5999 188.6 56.6999 188.6 61.7999C188.6 66.6999 192.1 70.4999 196.3 70.4999ZM218.3 73.5999V49.9999C218.3 47.3999 220.3 45.2999 222.9 45.2999C225.4 45.2999 227.5 47.3999 227.5 49.9999V73.5999C227.5 76.1999 225.4 78.2999 222.9 78.2999C220.4 78.2999 218.3 76.0999 218.3 73.5999ZM217.6 36.3999C217.6 33.2999 220 30.8999 222.9 30.8999C225.9 30.8999 228.3 33.3999 228.3 36.3999C228.3 39.3999 225.9 41.7999 222.9 41.7999C219.9 41.6999 217.6 39.2999 217.6 36.3999ZM245.1 60.7999V73.5999C245.1 76.1999 243 78.2999 240.5 78.2999C238 78.2999 235.9 76.1999 235.9 73.5999V48.8999C235.9 46.8999 237.5 45.2999 239.5 45.2999C241.5 45.2999 243 46.9999 243 48.8999C246.7 45.3999 250 44.8999 253.1 44.8999C262.3 44.8999 266.4 51.7999 266.4 59.6999V73.5999C266.4 76.1999 264.3 78.2999 261.8 78.2999C259.3 78.2999 257.2 76.1999 257.2 73.5999V60.7999C257.2 56.7999 256.7 53.3999 250.9 53.3999C246.8 53.3999 245.1 56.7999 245.1 60.7999ZM296.2 65.6999C295.1 65.6999 294.4 65.1999 293.8 64.4999L283.1 52.8999V73.5999C283.1 76.1999 281 78.2999 278.5 78.2999C276 78.2999 273.9 76.1999 273.9 73.5999V32.5999C274.2 31.8999 274.9 31.3999 275.6 31.3999C276.4 31.3999 277.1 32.0999 277.6 32.5999L294.7 51.7999C295.2 52.3999 295.8 52.6999 296.2 52.6999C296.5 52.6999 297.2 52.3999 297.7 51.7999L314.8 32.5999C315.3 32.0999 315.9 31.3999 316.8 31.3999C317.6 31.3999 318.3 31.8999 318.5 32.5999V73.5999C318.5 76.1999 316.5 78.2999 313.9 78.2999C311.4 78.2999 309.3 76.1999 309.3 73.5999V52.8999L298.6 64.4999C297.8 65.1999 297.1 65.6999 296.2 65.6999ZM340.4 70.4999C344.5 70.4999 348 66.7999 348 61.7999C348 56.7999 344.4 53.4999 340.4 53.4999C336.4 53.4999 333.1 56.8999 333.1 61.7999C333.1 66.5999 336.3 70.4999 340.4 70.4999ZM350.2 74.6999L350 73.5999C348.2 77.0999 342.5 78.6999 338.9 78.6999C330.3 78.6999 323.9 70.8999 323.9 61.5999C323.9 52.3999 330.4 44.7999 339.4 44.7999C340.9 44.7999 346.1 45.1999 350.1 49.8999L350.3 48.7999C350.3 46.7999 351.8 45.1999 353.8 45.1999C355.8 45.1999 357.4 46.8999 357.4 48.7999V74.5999C357.4 76.5999 355.8 78.1999 353.8 78.1999C351.7 78.2999 350.2 76.5999 350.2 74.6999ZM382.7 53.3999H381.7C375.9 53.6999 374.8 56.9999 374.8 60.7999V73.5999C374.8 76.1999 372.7 78.2999 370.2 78.2999C367.7 78.2999 365.6 76.1999 365.6 73.5999V48.8999C365.6 46.8999 367.2 45.2999 369.2 45.2999C371.2 45.2999 372.7 46.9999 372.7 48.8999C376.1 45.6999 378.9 44.9999 381.7 44.8999H382.6C384.8 44.8999 386.8 46.7999 386.8 49.1999C386.9 51.3999 384.9 53.3999 382.7 53.3999ZM418.2 71.3999C418.6 72.0999 418.9 72.7999 418.9 73.5999C418.9 75.9999 416.7 78.1999 414.3 78.1999C412.7 78.1999 411.3 76.9999 410.2 75.5999L399.6 63.2999V73.4999C399.6 76.0999 397.5 78.1999 395 78.1999C392.5 78.1999 390.4 76.0999 390.4 73.4999V35.9999C390.4 33.3999 392.4 31.2999 395 31.2999C397.6 31.2999 399.6 33.3999 399.6 35.9999V59.3999L410.2 47.6999C411.3 46.4999 412.6 45.1999 414.2 45.1999C416.5 45.1999 418.6 47.2999 418.6 49.6999C418.6 50.3999 418.4 51.1999 418 51.7999L409.6 60.9999L418.2 71.3999ZM436.2 53.4999C433.7 53.4999 429.6 54.7999 429.6 58.6999H442.9C442.8 54.7999 438.6 53.4999 436.2 53.4999ZM448.2 64.5999H429.6C429.6 70.0999 434.9 70.9999 437.2 70.9999C438.9 70.9999 441.3 70.6999 443.2 69.7999C443.8 69.3999 444.7 69.0999 445.6 69.0999C447.6 69.0999 449.3 70.7999 449.3 72.8999C449.3 74.2999 448.4 75.4999 447.3 76.1999C444.5 78.2999 440.8 78.7999 437.3 78.7999C428 78.7999 420.3 73.7999 420.3 62.0999C420.3 52.8999 425 44.8999 436 44.8999C444.9 44.8999 451.6 50.6999 451.8 60.9999C451.8 62.8999 450.2 64.5999 448.2 64.5999ZM473.8 78.6999H471.3C464.3 78.6999 460.2 75.5999 460.2 64.6999V53.3999H457.8C455.6 53.3999 453.7 51.3999 453.7 49.1999C453.7 46.7999 455.7 44.8999 457.8 44.8999H460.2V36.1999C460.2 33.5999 462.2 31.4999 464.8 31.4999C467.3 31.4999 469.4 33.5999 469.4 36.1999V44.8999H473.2C475.4 44.8999 477.3 46.7999 477.3 49.1999C477.3 51.3999 475.3 53.3999 473.2 53.3999H469.4V62.8999C469.4 69.1999 469.7 70.4999 472.5 70.4999H473.8C476 70.4999 477.9 72.2999 477.9 74.5999C477.9 76.7999 476 78.6999 473.8 78.6999ZM518.3 34.8999C519.5 35.5999 520.6 37.2999 520.6 38.7999C520.6 41.1999 518.6 43.1999 516.3 43.1999C515.7 43.1999 515.2 42.9999 514.7 42.8999C512 40.8999 508.6 39.5999 505 39.5999C496.5 39.5999 490.7 46.4999 490.7 55.0999C490.7 63.6999 496.6 70.4999 505 70.4999C509.2 70.4999 513 68.7999 515.8 66.0999C516.5 65.5999 517.4 65.2999 518.3 65.2999C520.6 65.2999 522.4 67.0999 522.4 69.3999C522.4 70.8999 521.5 72.1999 520.4 72.8999C516.3 76.3999 510.8 78.6999 505.1 78.6999C492.1 78.6999 481.5 67.9999 481.5 54.7999C481.5 41.5999 492.1 30.8999 505.1 30.8999C509.9 30.7999 514.6 32.2999 518.3 34.8999ZM541.6 70.4999C545.7 70.4999 549.2 66.7999 549.2 61.7999C549.2 56.7999 545.6 53.4999 541.6 53.4999C537.5 53.4999 534.3 56.8999 534.3 61.7999C534.3 66.5999 537.6 70.4999 541.6 70.4999ZM551.4 74.6999L551.2 73.5999C549.4 77.0999 543.7 78.6999 540.1 78.6999C531.5 78.6999 525.1 70.8999 525.1 61.5999C525.1 52.3999 531.6 44.7999 540.6 44.7999C542.1 44.7999 547.3 45.1999 551.3 49.8999L551.5 48.7999C551.5 46.7999 553 45.1999 555 45.1999C557 45.1999 558.6 46.8999 558.6 48.7999V74.5999C558.6 76.5999 557 78.1999 555 78.1999C552.9 78.2999 551.4 76.5999 551.4 74.6999ZM583.7 70.4999C587.8 70.4999 591 66.5999 591 61.7999C591 56.7999 587.7 53.4999 583.7 53.4999C579.6 53.4999 576.1 56.7999 576.1 61.7999C576.1 66.7999 579.6 70.4999 583.7 70.4999ZM576.1 75.9999V87.6999C576.1 90.2999 574 92.3999 571.5 92.3999C569 92.3999 566.9 90.2999 566.9 87.6999V48.8999C566.9 46.8999 568.5 45.2999 570.5 45.2999C572.5 45.2999 574 46.9999 574 49.2999C577.4 45.7999 581.6 44.8999 584.8 44.8999C593.7 44.8999 600.3 52.3999 600.3 61.6999C600.3 70.8999 594 78.7999 585.3 78.7999C582.6 78.6999 578.6 77.8999 576.1 75.9999Z" fill="#CFCEE6"/>
</svg>
