<svg width="641" height="471" viewBox="0 0 641 471" fill="none" xmlns="http://www.w3.org/2000/svg">
<path d="M105.362 336.624H57.7085C56.6832 336.623 55.7 336.215 54.9747 335.489C54.2494 334.763 53.8412 333.779 53.8398 332.752V175.575C53.8412 174.548 54.2494 173.563 54.9747 172.837C55.6999 172.112 56.6829 171.703 57.708 171.702H105.363C106.388 171.703 107.371 172.112 108.096 172.837C108.821 173.563 109.23 174.548 109.231 175.575V332.751C109.23 333.778 108.821 334.763 108.096 335.489C107.371 336.215 106.387 336.623 105.362 336.624Z" fill="#EC008C" fill-opacity="0.2" stroke="#FF008C" stroke-width="2"/>
<path d="M192.268 336.624H144.615C143.589 336.623 142.606 336.215 141.881 335.489C141.156 334.763 140.747 333.779 140.746 332.752V113.203C140.747 112.176 141.156 111.191 141.881 110.466C142.606 109.74 143.589 109.331 144.614 109.33H192.269C193.294 109.331 194.277 109.74 195.002 110.466C195.728 111.192 196.136 112.176 196.137 113.203V332.751C196.136 333.778 195.728 334.763 195.002 335.489C194.277 336.215 193.294 336.623 192.268 336.624Z" fill="#EC008C" fill-opacity="0.2" stroke="#FF008C" stroke-width="2"/>
<path d="M279.175 336.624H231.521C230.496 336.623 229.513 336.215 228.787 335.489C228.062 334.763 227.654 333.779 227.652 332.752V175.575C227.654 174.548 228.062 173.563 228.787 172.837C229.512 172.112 230.495 171.703 231.521 171.702H279.175C280.2 171.703 281.183 172.112 281.908 172.837C282.634 173.563 283.042 174.548 283.043 175.575V332.751C283.042 333.778 282.634 334.763 281.908 335.489C281.183 336.215 280.2 336.623 279.175 336.624Z" fill="#EC008C" fill-opacity="0.2" stroke="#FF008C" stroke-width="2"/>
<path d="M366.104 336.624L366.093 336.624H366.082H318.426H318.415L318.405 336.624C317.408 336.646 316.444 336.271 315.723 335.582L315.034 336.303L315.723 335.582C315.005 334.896 314.586 333.953 314.559 332.96V88.3742C314.586 87.3805 315.005 86.438 315.723 85.7517C316.444 85.0627 317.408 84.688 318.405 84.7095L318.415 84.7097H318.426H366.082H366.093L366.104 84.7095C367.1 84.688 368.064 85.0627 368.785 85.7517C369.503 86.438 369.922 87.3805 369.95 88.3742V332.96C369.922 333.953 369.503 334.896 368.785 335.582C368.064 336.271 367.1 336.646 366.104 336.624Z" fill="#EC008C" fill-opacity="0.2" stroke="#FF008C" stroke-width="2"/>
<path d="M452.987 336.624H405.334C404.308 336.623 403.325 336.215 402.6 335.489C401.874 334.763 401.466 333.779 401.465 332.752V44.2655C401.466 43.2384 401.874 42.254 402.6 41.5282C403.325 40.8023 404.308 40.3941 405.333 40.3928H452.988C454.013 40.3941 454.996 40.8023 455.721 41.5282C456.446 42.2542 456.855 43.2388 456.856 44.266V332.751C456.855 333.778 456.446 334.763 455.721 335.489C454.996 336.215 454.012 336.623 452.987 336.624Z" fill="#EC008C" fill-opacity="0.2" stroke="#FF008C" stroke-width="2"/>
<path d="M81.5347 151.006C86.9684 151.006 91.3732 146.597 91.3732 141.158C91.3732 135.719 86.9684 131.309 81.5347 131.309C76.1011 131.309 71.6963 135.719 71.6963 141.158C71.6963 146.597 76.1011 151.006 81.5347 151.006Z" fill="#FF008C"/>
<path d="M168.441 86.9924C173.875 86.9924 178.279 82.5832 178.279 77.1442C178.279 71.7052 173.875 67.296 168.441 67.296C163.007 67.296 158.603 71.7052 158.603 77.1442C158.603 82.5832 163.007 86.9924 168.441 86.9924Z" fill="#FF008C"/>
<path d="M255.347 151.006C260.781 151.006 265.186 146.597 265.186 141.158C265.186 135.719 260.781 131.309 255.347 131.309C249.914 131.309 245.509 135.719 245.509 141.158C245.509 146.597 249.914 151.006 255.347 151.006Z" fill="#FF008C"/>
<path d="M342.253 55.8065C347.687 55.8065 352.092 51.3973 352.092 45.9583C352.092 40.5193 347.687 36.1101 342.253 36.1101C336.82 36.1101 332.415 40.5193 332.415 45.9583C332.415 51.3973 336.82 55.8065 342.253 55.8065Z" fill="#FF008C"/>
<path d="M429.16 19.6964C434.593 19.6964 438.998 15.2872 438.998 9.8482C438.998 4.40919 434.593 0 429.16 0C423.726 0 419.321 4.40919 419.321 9.8482C419.321 15.2872 423.726 19.6964 429.16 19.6964Z" fill="#FF008C"/>
<path d="M508.832 337.453H0.767469C0.563923 337.453 0.368714 337.372 0.224786 337.228C0.0808575 337.084 0 336.889 0 336.685C0 336.481 0.0808575 336.286 0.224786 336.142C0.368714 335.998 0.563923 335.917 0.767469 335.917H508.832C509.035 335.917 509.231 335.998 509.374 336.142C509.518 336.286 509.599 336.481 509.599 336.685C509.599 336.889 509.518 337.084 509.374 337.228C509.231 337.372 509.035 337.453 508.832 337.453Z" fill="#FF008C"/>
<path d="M475.781 326.967C476.412 326.339 476.898 325.58 477.204 324.744C477.511 323.908 477.63 323.015 477.554 322.127C477.479 321.24 477.21 320.38 476.766 319.608C476.322 318.836 475.715 318.171 474.987 317.659L478.004 304.069L470.201 300.22L466.209 319.471C465.432 320.752 465.151 322.275 465.42 323.75C465.689 325.225 466.489 326.55 467.669 327.474C468.849 328.398 470.326 328.857 471.821 328.763C473.316 328.67 474.725 328.03 475.781 326.967Z" fill="#FFB7B7"/>
<path d="M561.111 327.264C561.692 326.59 562.117 325.796 562.358 324.938C562.599 324.081 562.649 323.181 562.505 322.302C562.361 321.423 562.027 320.587 561.525 319.852C561.023 319.116 560.366 318.5 559.6 318.046L561.558 304.264L553.481 301.03L550.989 320.532C550.313 321.87 550.15 323.41 550.533 324.86C550.915 326.31 551.815 327.569 553.063 328.399C554.31 329.229 555.819 329.571 557.302 329.362C558.786 329.153 560.141 328.407 561.111 327.264L561.111 327.264Z" fill="#FFB7B7"/>
<path d="M500.283 462.534L492.326 462.533L488.541 431.812L500.285 431.813L500.283 462.534Z" fill="#FFB7B7"/>
<path d="M502.313 470.255L476.656 470.254V469.929C476.656 467.278 477.709 464.735 479.581 462.861C481.454 460.986 483.994 459.933 486.643 459.933H486.643L502.314 459.933L502.313 470.255Z" fill="#543F48"/>
<path d="M526.894 462.534L518.937 462.533L515.151 431.812L526.895 431.813L526.894 462.534Z" fill="#FFB7B7"/>
<path d="M528.923 470.255L503.267 470.254V469.929C503.267 467.278 504.319 464.735 506.192 462.861C508.065 460.986 510.604 459.933 513.253 459.933H513.254L528.924 459.933L528.923 470.255Z" fill="#543F48"/>
<path d="M542.915 204.065L551.495 200.966C551.495 200.966 555.137 201.74 555.137 211.626C555.137 221.511 564.808 313.71 564.808 313.71L547.882 318.171L538.315 230.698L542.915 204.065Z" fill="#2C2D34"/>
<path d="M485.581 204.065L477.001 200.966C477.001 200.966 473.359 201.74 473.359 211.626C473.359 221.511 463.688 313.71 463.688 313.71L480.614 318.171L490.18 230.698L485.581 204.065Z" fill="#2C2D34"/>
<path d="M485.691 309.218L483.346 378.475L488.538 455.086L501.917 455.395L503.864 383.931L514.897 348.198L513.784 453.517L528.933 453.336L538.316 380.877C538.316 380.877 550.707 320.912 543.836 309.218L512.191 298.684L485.691 309.218Z" fill="#2C2D34"/>
<path d="M485.948 300.872L485.185 317.533C485.185 317.533 495.861 322.851 514.628 319.612C533.394 316.372 545.869 318.508 545.869 318.508L544.428 297.269L485.948 300.872Z" fill="#E5E5E5"/>
<path d="M476.659 201.212L501.336 190.388L502.808 184.718L526.814 185.414L527.851 191.206L551.495 200.966L541.078 237.224L542.147 262.73L555.137 309.218C555.137 309.218 544.18 318.532 517.856 314.525L513.314 305.363L510.535 315.052C510.535 315.052 487.452 323.552 481.054 312.487L485.69 232.556L476.659 201.212Z" fill="#2C2D34"/>
<path d="M514.593 179.393C523.397 179.393 530.534 172.249 530.534 163.436C530.534 154.623 523.397 147.479 514.593 147.479C505.789 147.479 498.652 154.623 498.652 163.436C498.652 172.249 505.789 179.393 514.593 179.393Z" fill="#FFB7B7"/>
<path d="M533.534 157.253C533.249 155.954 532.7 154.728 531.923 153.65C531.613 150.669 530.619 147.8 529.02 145.266C528.393 144.079 527.504 143.051 526.419 142.261C525.177 141.545 523.759 141.191 522.327 141.24C522.067 141.235 521.6 141.314 521.179 141.333C520.91 141.25 520.638 141.176 520.366 141.106C520.207 140.752 519.892 139.72 519.804 139.79L518.617 140.734C518.114 140.647 517.61 140.579 517.103 140.525C516.919 139.999 516.734 139.472 516.55 138.945C516.251 139.416 515.989 139.91 515.766 140.421C515.261 140.397 514.757 140.388 514.252 140.395L513.243 139.425C513.183 139.696 513.046 139.943 512.849 140.137C512.651 140.331 512.401 140.463 512.129 140.517C511.665 140.564 511.202 140.627 510.741 140.701C510.704 140.701 510.666 140.701 510.629 140.7C508.144 140.638 505.469 140.526 503.391 141.892C502.418 142.561 501.627 143.46 501.087 144.51C500.832 144.683 500.577 144.855 500.33 145.038C499.496 145.608 498.774 146.325 498.198 147.154C497.779 147.869 497.462 148.639 497.255 149.442C496.461 151.858 496.094 154.393 496.169 156.935C496.254 159.494 497.218 161.946 498.9 163.875C499.966 165.022 501.321 165.869 502.388 167.014C504.586 169.371 504.998 172.66 506.878 175.155C508.866 177.793 512.495 179.53 515.682 180.027C517.598 180.316 519.553 180.223 521.433 179.754C523.313 179.285 525.082 178.448 526.638 177.292C527.385 176.772 528.019 176.106 528.503 175.334C529.61 173.419 529.141 171.012 529.551 168.838C530.321 164.764 534.206 161.344 533.534 157.253Z" fill="#7C4437"/>
<path d="M81.0101 141.774L80.0938 140.541L168.442 74.7018L255.067 139.379L342.877 43.9465L343.035 43.882L428.254 8.6748L428.84 10.0953L343.777 45.2371L255.258 141.439L168.441 76.6178L81.0101 141.774Z" fill="#FF008C"/>
</svg>
