<svg width="178" height="42" viewBox="0 0 178 42" fill="none" xmlns="http://www.w3.org/2000/svg">
<path d="M20.4133 10.8949L24.1642 7.13373C25.0787 6.21675 26.5667 6.21675 27.4812 7.13373C28.3957 8.05071 28.3957 9.54275 27.4812 10.4597L20.4133 17.5469" fill="url(#paint0_linear)"/>
<path d="M20.4133 10.8949L16.6623 7.13373C15.7478 6.21675 14.2598 6.21675 13.3454 7.13373C12.4309 8.05071 12.4309 9.54275 13.3454 10.4597L20.4133 17.5469" fill="url(#paint1_linear)"/>
<path d="M29.9921 20.469L33.7431 24.2301C34.6576 25.1471 34.6576 26.6392 33.7431 27.5561C32.8286 28.4731 31.3406 28.4731 30.4261 27.5561L23.3582 20.469" fill="url(#paint2_linear)"/>
<path d="M29.9921 20.4689L33.7431 16.7077C34.6576 15.7907 34.6576 14.2987 33.7431 13.3817C32.8286 12.4647 31.3406 12.4647 30.4261 13.3817L23.3582 20.4689" fill="url(#paint3_linear)"/>
<path d="M10.7879 20.4689L7.03694 16.7077C6.12245 15.7907 6.12245 14.2987 7.03694 13.3817C7.95143 12.4647 9.43941 12.4647 10.3539 13.3817L17.4218 20.4689" fill="url(#paint4_linear)"/>
<path d="M10.7879 20.469L7.03694 24.2301C6.12245 25.1471 6.12245 26.6392 7.03694 27.5561C7.95143 28.4731 9.43941 28.4731 10.3539 27.5561L17.4218 20.469" fill="url(#paint5_linear)"/>
<path d="M16.9413 3.46588L20.4133 6.93177L23.8698 3.46588L20.4133 0L16.9413 3.46588Z" fill="url(#paint6_linear)"/>
<path d="M33.8981 20.4689L37.3546 23.9348L40.8111 20.4689L37.3546 16.9875L33.8981 20.4689Z" fill="url(#paint7_linear)"/>
<path d="M0 20.4689L3.45646 23.9348L6.91292 20.4689L3.45646 16.9875L0 20.4689Z" fill="url(#paint8_linear)"/>
<path d="M20.4133 34.3634L24.1642 30.6023C25.0787 29.6853 26.5667 29.6853 27.4812 30.6023C28.3957 31.5192 28.3957 33.0113 27.4812 33.9283L20.4133 41.0154" fill="url(#paint9_linear)"/>
<path d="M20.4133 34.3634L16.6623 30.6023C15.7478 29.6853 14.2598 29.6853 13.3454 30.6023C12.4309 31.5192 12.4309 33.0113 13.3454 33.9283L20.4133 41.0154" fill="url(#paint10_linear)"/>
<path d="M20.4133 30.4469L23.8698 26.981L20.4133 23.5151L16.9413 26.981L20.4133 30.4469Z" fill="url(#paint11_linear)"/>
<path d="M59.2248 28.7683C54.6059 28.7683 51.1959 25.1159 51.1959 20.3134C51.1959 15.4332 54.6059 12.2005 59.2248 12.2005H68.1837V15.0913H59.2248C56.2644 15.0913 54.0944 17.2983 54.0944 20.4533C54.0944 23.5773 56.2489 25.8775 59.2248 25.8775H68.1837V28.7683H59.2248Z" fill="white"/>
<path d="M71.8727 28.7682V12.2159H74.7556V25.8929H85.869V28.7838H71.8727V28.7682Z" fill="white"/>
<path d="M103.616 12.2159H106.437V21.4635C106.437 26.5923 103.911 29.0014 97.5094 29.0014C91.1545 29.0014 88.597 26.5923 88.597 21.4635V12.2159H91.573V21.4635C91.573 24.7895 93.0454 26.1572 97.6024 26.1572C102.159 26.1572 103.632 24.7895 103.632 21.4635V12.2159H103.616Z" fill="white"/>
<path d="M117.504 28.7683C112.885 28.7683 109.475 25.1159 109.475 20.3134C109.475 15.4332 112.885 12.2005 117.504 12.2005H126.463V15.0913H117.504C114.544 15.0913 112.374 17.2983 112.374 20.4533C112.374 23.5773 114.528 25.8775 117.504 25.8775H126.463V28.7683H117.504Z" fill="white"/>
<path d="M137.251 28.7683C132.632 28.7683 129.222 25.1159 129.222 20.3134C129.222 15.4332 132.632 12.2005 137.251 12.2005H141.265C146.039 12.2005 149.356 15.5109 149.356 20.3134C149.356 25.1159 145.977 28.7683 141.265 28.7683H137.251ZM141.281 25.8775C144.319 25.8775 146.489 23.5773 146.489 20.4533C146.489 17.3293 144.334 15.0913 141.281 15.0913H137.266C134.306 15.0913 132.136 17.2983 132.136 20.4533C132.136 23.5773 134.29 25.8775 137.266 25.8775H141.281Z" fill="white"/>
<path d="M153.231 28.7682V12.2159H156.114V28.7838H153.231V28.7682Z" fill="white"/>
<path d="M163.632 16.6455V28.7683H160.888V13.7391C160.888 12.6667 161.462 12.0139 162.361 12.0139C162.795 12.0139 163.151 12.1693 163.585 12.6045L175.241 24.1989V12.0761H177.984V27.2452C177.984 28.3331 177.395 28.9703 176.559 28.9703C176.078 28.9703 175.644 28.7683 175.241 28.3486L163.632 16.6455Z" fill="white"/>
<defs>
<linearGradient id="paint0_linear" x1="20.4066" y1="11.9948" x2="28.1576" y2="11.9948" gradientUnits="userSpaceOnUse">
<stop stop-color="#FF008C"/>
<stop offset="1" stop-color="#BD0084"/>
</linearGradient>
<linearGradient id="paint1_linear" x1="12.6556" y1="11.9948" x2="20.4066" y2="11.9948" gradientUnits="userSpaceOnUse">
<stop stop-color="#FF008C"/>
<stop offset="1" stop-color="#BD0084"/>
</linearGradient>
<linearGradient id="paint2_linear" x1="28.8956" y1="28.2344" x2="28.8956" y2="20.4622" gradientUnits="userSpaceOnUse">
<stop stop-color="#FF008C"/>
<stop offset="1" stop-color="#BD0084"/>
</linearGradient>
<linearGradient id="paint3_linear" x1="28.8956" y1="20.4622" x2="28.8956" y2="12.69" gradientUnits="userSpaceOnUse">
<stop stop-color="#FF008C"/>
<stop offset="1" stop-color="#BD0084"/>
</linearGradient>
<linearGradient id="paint4_linear" x1="11.8841" y1="20.4622" x2="11.8841" y2="12.69" gradientUnits="userSpaceOnUse">
<stop stop-color="#FF008C"/>
<stop offset="1" stop-color="#BD0084"/>
</linearGradient>
<linearGradient id="paint5_linear" x1="11.8841" y1="28.2344" x2="11.8841" y2="20.4622" gradientUnits="userSpaceOnUse">
<stop stop-color="#FF008C"/>
<stop offset="1" stop-color="#BD0084"/>
</linearGradient>
<linearGradient id="paint6_linear" x1="18.6805" y1="1.73754" x2="22.1499" y2="5.19748" gradientUnits="userSpaceOnUse">
<stop stop-color="#FF008C"/>
<stop offset="1" stop-color="#BD0084"/>
</linearGradient>
<linearGradient id="paint7_linear" x1="35.6269" y1="18.7301" x2="39.0963" y2="22.1901" gradientUnits="userSpaceOnUse">
<stop stop-color="#FF008C"/>
<stop offset="1" stop-color="#BD0084"/>
</linearGradient>
<linearGradient id="paint8_linear" x1="1.73402" y1="18.7301" x2="5.20342" y2="22.1901" gradientUnits="userSpaceOnUse">
<stop stop-color="#FF008C"/>
<stop offset="1" stop-color="#BD0084"/>
</linearGradient>
<linearGradient id="paint9_linear" x1="28.1576" y1="35.4579" x2="20.4066" y2="35.4579" gradientUnits="userSpaceOnUse">
<stop stop-color="#FF008C"/>
<stop offset="1" stop-color="#BD0084"/>
</linearGradient>
<linearGradient id="paint10_linear" x1="20.4066" y1="35.4579" x2="12.6556" y2="35.4579" gradientUnits="userSpaceOnUse">
<stop stop-color="#FF008C"/>
<stop offset="1" stop-color="#BD0084"/>
</linearGradient>
<linearGradient id="paint11_linear" x1="18.6812" y1="28.7047" x2="22.1506" y2="25.2448" gradientUnits="userSpaceOnUse">
<stop stop-color="#FF008C"/>
<stop offset="1" stop-color="#BD0084"/>
</linearGradient>
</defs>
</svg>
