<svg width="706" height="480" viewBox="0 0 706 480" fill="none" xmlns="http://www.w3.org/2000/svg">
<path d="M391.582 453.628L244.554 451.75L244.983 447.983L252.095 385.853H381.219L390.716 447.983L391.442 452.689L391.582 453.628Z" fill="#2C2D34"/>
<path opacity="0.1" d="M391.442 452.689H318.064L244.554 451.749L244.983 447.983H390.716L391.442 452.689Z" fill="black"/>
<path d="M415.148 448.923H220.048V453.628H415.148V448.923Z" fill="#2C2D34"/>
<path d="M601.295 12.6864C601.303 11.0771 600.993 9.48207 600.383 7.99237C599.774 6.50267 598.876 5.14748 597.742 4.00418C596.608 2.86087 595.26 1.95186 593.774 1.32901C592.289 0.706171 590.695 0.381703 589.083 0.374146H44.2383C42.6271 0.381703 41.0331 0.706171 39.5473 1.32901C38.0616 1.95186 36.7133 2.86087 35.5793 4.00418C34.4453 5.14748 33.5479 6.50267 32.9383 7.99237C32.3287 9.48207 32.0189 11.0771 32.0265 12.6864V342.546H601.295V12.6864Z" fill="#2C2D34"/>
<path d="M32.0283 339.258V377.892C32.0283 381.127 33.3149 384.229 35.6051 386.517C37.8953 388.804 41.0014 390.089 44.2402 390.089H589.085C592.324 390.089 595.43 388.804 597.72 386.517C600.01 384.229 601.297 381.127 601.297 377.892V339.258H32.0283Z" fill="#2C2D34"/>
<path d="M580.553 21.0841H55.585V317.608H580.553V21.0841Z" fill="#1E1F24"/>
<path d="M319.459 375.428C321.387 375.43 323.29 374.995 325.024 374.154C326.758 373.313 328.277 372.089 329.468 370.574C329.832 370.112 330.162 369.624 330.458 369.116L323.477 367.97L331.027 368.028C331.75 366.454 332.144 364.749 332.187 363.018C332.229 361.287 331.919 359.565 331.275 357.957L321.142 363.207L330.483 356.35C329.605 354.844 328.428 353.534 327.022 352.502C325.617 351.47 324.014 350.738 322.313 350.351C320.612 349.963 318.85 349.929 317.136 350.251C315.421 350.573 313.791 351.243 312.347 352.221C310.903 353.198 309.676 354.461 308.741 355.933C307.807 357.404 307.185 359.051 306.915 360.772C306.645 362.494 306.732 364.252 307.171 365.938C307.61 367.624 308.392 369.202 309.467 370.574C310.656 372.086 312.173 373.309 313.904 374.15C315.635 374.991 317.534 375.428 319.459 375.428Z" fill="#EC008C"/>
<path opacity="0.1" d="M332.207 390.089L390.865 448.923L381.863 390.089H332.207Z" fill="black"/>
<path d="M489.748 430.24L505.549 421.01C503.409 417.37 500.679 414.109 497.471 411.36L467.676 420.614L491.019 406.901C485.239 403.739 478.733 402.134 472.143 402.245C465.553 402.356 459.106 404.179 453.436 407.535C447.766 410.89 443.068 415.663 439.805 421.382C436.542 427.102 434.827 433.571 434.828 440.154C434.828 461.095 451.826 461.82 472.784 461.82C493.742 461.82 510.739 461.095 510.739 440.154C510.746 434.857 509.638 429.618 507.488 424.776L489.748 430.24Z" fill="#AC0F73"/>
<path opacity="0.1" d="M493.775 450.596C492.089 448.914 490.208 447.439 488.172 446.203C485.309 444.3 482.338 442.363 478.955 441.712C475.993 441.143 472.924 441.621 469.879 441.456C464.625 441.135 459.68 438.869 456.009 435.102C453.847 432.877 452.155 430.158 449.556 428.435C446.759 426.606 443.211 426.21 439.902 426.663C438.938 426.807 437.982 427.005 437.039 427.257C435.549 431.38 434.79 435.73 434.795 440.113C434.795 461.054 451.792 461.779 472.751 461.779C482.924 461.779 492.166 461.606 498.981 459.035L497.843 456.908C496.759 454.641 495.392 452.52 493.775 450.596Z" fill="black"/>
<path opacity="0.3" d="M96.3546 135.479H78.9033V140.77H96.3546V135.479Z" fill="#EC008C"/>
<path opacity="0.3" d="M562.012 135.636H544.561V140.927H562.012V135.636Z" fill="#EC008C"/>
<path opacity="0.3" d="M96.5109 172.672H79.0596V177.962H96.5109V172.672Z" fill="#EC008C"/>
<path opacity="0.3" d="M96.6681 209.864H79.2168V215.155H96.6681V209.864Z" fill="#EC008C"/>
<path opacity="0.3" d="M96.8244 247.048H79.373V252.339H96.8244V247.048Z" fill="#EC008C"/>
<g opacity="0.2">
<path opacity="0.2" d="M101.305 138.026H96.3545V138.232H101.305V138.026Z" fill="#F2F2F2"/>
<path opacity="0.2" d="M529.569 138.232H519.841V138.026H529.569V138.232ZM510.104 138.232H500.376V138.026H510.104V138.232ZM490.64 138.232H480.903V138.026H490.64V138.232ZM471.175 138.232H461.439V138.026H471.175V138.232ZM451.71 138.232H441.974V138.026H451.71V138.232ZM432.237 138.232H422.509V138.026H432.237V138.232ZM412.773 138.232H403.036V138.026H412.773V138.232ZM393.308 138.232H383.572V138.026H393.308V138.232ZM373.844 138.232H364.107V138.026H373.844V138.232ZM354.371 138.232H344.642V138.026H354.371V138.232ZM334.906 138.232H325.17V138.026H334.906V138.232ZM315.441 138.232H305.705V138.026H315.441V138.232ZM295.977 138.232H286.24V138.026H295.977V138.232ZM276.504 138.232H266.776V138.026H276.504V138.232ZM257.039 138.232H247.311V138.026H257.039V138.232ZM237.575 138.232H227.871V138.026H237.608L237.575 138.232ZM218.11 138.232H208.373V138.026H218.11V138.232ZM198.637 138.232H188.909V138.026H198.637V138.232ZM179.172 138.232H169.444V138.026H179.189L179.172 138.232ZM159.708 138.232H149.971V138.026H159.708V138.232ZM140.243 138.232H130.507V138.026H140.243V138.232ZM120.77 138.232H111.042V138.026H120.77V138.232Z" fill="#F2F2F2"/>
<path opacity="0.2" d="M544.256 138.026H539.305V138.232H544.256V138.026Z" fill="#F2F2F2"/>
<path opacity="0.2" d="M101.305 138.026H96.3545V138.232H101.305V138.026Z" fill="#F2F2F2"/>
<path opacity="0.2" d="M529.569 138.232H519.841V138.026H529.569V138.232ZM510.104 138.232H500.376V138.026H510.104V138.232ZM490.64 138.232H480.903V138.026H490.64V138.232ZM471.175 138.232H461.439V138.026H471.175V138.232ZM451.71 138.232H441.974V138.026H451.71V138.232ZM432.237 138.232H422.509V138.026H432.237V138.232ZM412.773 138.232H403.036V138.026H412.773V138.232ZM393.308 138.232H383.572V138.026H393.308V138.232ZM373.844 138.232H364.107V138.026H373.844V138.232ZM354.371 138.232H344.642V138.026H354.371V138.232ZM334.906 138.232H325.17V138.026H334.906V138.232ZM315.441 138.232H305.705V138.026H315.441V138.232ZM295.977 138.232H286.24V138.026H295.977V138.232ZM276.504 138.232H266.776V138.026H276.504V138.232ZM257.039 138.232H247.311V138.026H257.039V138.232ZM237.575 138.232H227.871V138.026H237.608L237.575 138.232ZM218.11 138.232H208.373V138.026H218.11V138.232ZM198.637 138.232H188.909V138.026H198.637V138.232ZM179.172 138.232H169.444V138.026H179.189L179.172 138.232ZM159.708 138.232H149.971V138.026H159.708V138.232ZM140.243 138.232H130.507V138.026H140.243V138.232ZM120.77 138.232H111.042V138.026H120.77V138.232Z" fill="#F2F2F2"/>
<path opacity="0.2" d="M544.256 138.026H539.305V138.232H544.256V138.026Z" fill="#F2F2F2"/>
</g>
<path opacity="0.3" d="M96.3546 98.3943H78.9033V103.685H96.3546V98.3943Z" fill="#EC008C"/>
<path opacity="0.3" d="M562.012 98.5508H544.561V103.842H562.012V98.5508Z" fill="#EC008C"/>
<g opacity="0.2">
<path opacity="0.2" d="M101.305 100.941H96.3545V101.147H101.305V100.941Z" fill="#F2F2F2"/>
<path opacity="0.2" d="M529.569 101.147H519.841V100.941H529.569V101.147ZM510.104 101.147H500.376V100.941H510.104V101.147ZM490.64 101.147H480.903V100.941H490.64V101.147ZM471.175 101.147H461.439V100.941H471.175V101.147ZM451.71 101.147H441.974V100.941H451.71V101.147ZM432.237 101.147H422.509V100.941H432.237V101.147ZM412.773 101.147H403.036V100.941H412.773V101.147ZM393.308 101.147H383.572V100.941H393.308V101.147ZM373.844 101.147H364.107V100.941H373.844V101.147ZM354.371 101.147H344.642V100.941H354.371V101.147ZM334.906 101.147H325.17V100.941H334.906V101.147ZM315.441 101.147H305.705V100.941H315.441V101.147ZM295.977 101.147H286.24V100.941H295.977V101.147ZM276.504 101.147H266.776V100.941H276.504V101.147ZM257.039 101.147H247.311V100.941H257.039V101.147ZM237.575 101.147H227.871V100.941H237.608L237.575 101.147ZM218.11 101.147H208.373V100.941H218.11V101.147ZM198.637 101.147H188.909V100.941H198.637V101.147ZM179.172 101.147H169.444V100.941H179.189L179.172 101.147ZM159.708 101.147H149.971V100.941H159.708V101.147ZM140.243 101.147H130.507V100.941H140.243V101.147ZM120.77 101.147H111.042V100.941H120.77V101.147Z" fill="#F2F2F2"/>
<path opacity="0.2" d="M544.256 100.941H539.305V101.147H544.256V100.941Z" fill="#F2F2F2"/>
</g>
<path opacity="0.3" d="M562.012 172.672H544.561V177.962H562.012V172.672Z" fill="#EC008C"/>
<g opacity="0.2">
<path opacity="0.2" d="M101.305 175.062H96.3545V175.268H101.305V175.062Z" fill="#F2F2F2"/>
<path opacity="0.2" d="M529.569 175.259H519.841V175.053H529.569V175.259ZM510.104 175.259H500.376V175.053H510.104V175.259ZM490.64 175.259H480.903V175.053H490.64V175.259ZM471.175 175.259H461.439V175.053H471.175V175.259ZM451.71 175.259H441.974V175.053H451.71V175.259ZM432.237 175.259H422.509V175.053H432.237V175.259ZM412.773 175.259H403.036V175.053H412.773V175.259ZM393.308 175.259H383.572V175.053H393.308V175.259ZM373.844 175.259H364.107V175.053H373.844V175.259ZM354.371 175.259H344.642V175.053H354.371V175.259ZM334.906 175.259H325.17V175.053H334.906V175.259ZM315.441 175.259H305.705V175.053H315.441V175.259ZM295.977 175.259H286.24V175.053H295.977V175.259ZM276.504 175.259H266.776V175.053H276.504V175.259ZM257.039 175.259H247.311V175.053H257.039V175.259ZM237.575 175.259H227.871V175.053H237.608L237.575 175.259ZM218.11 175.259H208.373V175.053H218.11V175.259ZM198.637 175.259H188.909V175.053H198.637V175.259ZM179.172 175.259H169.444V175.053H179.189L179.172 175.259ZM159.708 175.259H149.971V175.053H159.708V175.259ZM140.243 175.259H130.507V175.053H140.243V175.259ZM120.77 175.259H111.042V175.053H120.77V175.259Z" fill="#F2F2F2"/>
<path opacity="0.2" d="M544.256 175.062H539.305V175.268H544.256V175.062Z" fill="#F2F2F2"/>
<path opacity="0.2" d="M101.305 175.062H96.3545V175.268H101.305V175.062Z" fill="#F2F2F2"/>
<path opacity="0.2" d="M529.569 175.259H519.841V175.053H529.569V175.259ZM510.104 175.259H500.376V175.053H510.104V175.259ZM490.64 175.259H480.903V175.053H490.64V175.259ZM471.175 175.259H461.439V175.053H471.175V175.259ZM451.71 175.259H441.974V175.053H451.71V175.259ZM432.237 175.259H422.509V175.053H432.237V175.259ZM412.773 175.259H403.036V175.053H412.773V175.259ZM393.308 175.259H383.572V175.053H393.308V175.259ZM373.844 175.259H364.107V175.053H373.844V175.259ZM354.371 175.259H344.642V175.053H354.371V175.259ZM334.906 175.259H325.17V175.053H334.906V175.259ZM315.441 175.259H305.705V175.053H315.441V175.259ZM295.977 175.259H286.24V175.053H295.977V175.259ZM276.504 175.259H266.776V175.053H276.504V175.259ZM257.039 175.259H247.311V175.053H257.039V175.259ZM237.575 175.259H227.871V175.053H237.608L237.575 175.259ZM218.11 175.259H208.373V175.053H218.11V175.259ZM198.637 175.259H188.909V175.053H198.637V175.259ZM179.172 175.259H169.444V175.053H179.189L179.172 175.259ZM159.708 175.259H149.971V175.053H159.708V175.259ZM140.243 175.259H130.507V175.053H140.243V175.259ZM120.77 175.259H111.042V175.053H120.77V175.259Z" fill="#F2F2F2"/>
<path opacity="0.2" d="M544.256 175.062H539.305V175.268H544.256V175.062Z" fill="#F2F2F2"/>
</g>
<path opacity="0.3" d="M562.012 209.707H544.561V214.998H562.012V209.707Z" fill="#EC008C"/>
<g opacity="0.2">
<path opacity="0.2" d="M101.305 212.089H96.3545V212.295H101.305V212.089Z" fill="#F2F2F2"/>
<path opacity="0.2" d="M529.569 212.295H519.841V212.089H529.569V212.295ZM510.104 212.295H500.376V212.089H510.104V212.295ZM490.64 212.295H480.903V212.089H490.64V212.295ZM471.175 212.295H461.439V212.089H471.175V212.295ZM451.71 212.295H441.974V212.089H451.71V212.295ZM432.237 212.295H422.509V212.089H432.237V212.295ZM412.773 212.295H403.036V212.089H412.773V212.295ZM393.308 212.295H383.572V212.089H393.308V212.295ZM373.844 212.295H364.107V212.089H373.844V212.295ZM354.371 212.295H344.642V212.089H354.371V212.295ZM334.906 212.295H325.17V212.089H334.906V212.295ZM315.441 212.295H305.705V212.089H315.441V212.295ZM295.977 212.295H286.24V212.089H295.977V212.295ZM276.504 212.295H266.776V212.089H276.504V212.295ZM257.039 212.295H247.311V212.089H257.039V212.295ZM237.575 212.295H227.871V212.089H237.608L237.575 212.295ZM218.11 212.295H208.373V212.089H218.11V212.295ZM198.637 212.295H188.909V212.089H198.637V212.295ZM179.172 212.295H169.444V212.089H179.189L179.172 212.295ZM159.708 212.295H149.971V212.089H159.708V212.295ZM140.243 212.295H130.507V212.089H140.243V212.295ZM120.77 212.295H111.042V212.089H120.77V212.295Z" fill="#F2F2F2"/>
<path opacity="0.2" d="M544.256 212.089H539.305V212.295H544.256V212.089Z" fill="#F2F2F2"/>
<path opacity="0.2" d="M101.305 212.089H96.3545V212.295H101.305V212.089Z" fill="#F2F2F2"/>
<path opacity="0.2" d="M529.569 212.295H519.841V212.089H529.569V212.295ZM510.104 212.295H500.376V212.089H510.104V212.295ZM490.64 212.295H480.903V212.089H490.64V212.295ZM471.175 212.295H461.439V212.089H471.175V212.295ZM451.71 212.295H441.974V212.089H451.71V212.295ZM432.237 212.295H422.509V212.089H432.237V212.295ZM412.773 212.295H403.036V212.089H412.773V212.295ZM393.308 212.295H383.572V212.089H393.308V212.295ZM373.844 212.295H364.107V212.089H373.844V212.295ZM354.371 212.295H344.642V212.089H354.371V212.295ZM334.906 212.295H325.17V212.089H334.906V212.295ZM315.441 212.295H305.705V212.089H315.441V212.295ZM295.977 212.295H286.24V212.089H295.977V212.295ZM276.504 212.295H266.776V212.089H276.504V212.295ZM257.039 212.295H247.311V212.089H257.039V212.295ZM237.575 212.295H227.871V212.089H237.608L237.575 212.295ZM218.11 212.295H208.373V212.089H218.11V212.295ZM198.637 212.295H188.909V212.089H198.637V212.295ZM179.172 212.295H169.444V212.089H179.189L179.172 212.295ZM159.708 212.295H149.971V212.089H159.708V212.295ZM140.243 212.295H130.507V212.089H140.243V212.295ZM120.77 212.295H111.042V212.089H120.77V212.295Z" fill="#F2F2F2"/>
<path opacity="0.2" d="M544.256 212.089H539.305V212.295H544.256V212.089Z" fill="#F2F2F2"/>
</g>
<path opacity="0.3" d="M562.012 246.735H544.561V252.025H562.012V246.735Z" fill="#EC008C"/>
<g opacity="0.2">
<path opacity="0.2" d="M101.305 249.125H96.3545V249.331H101.305V249.125Z" fill="#F2F2F2"/>
<path opacity="0.2" d="M529.569 249.331H519.841V249.125H529.569V249.331ZM510.104 249.331H500.376V249.125H510.104V249.331ZM490.64 249.331H480.903V249.125H490.64V249.331ZM471.175 249.331H461.439V249.125H471.175V249.331ZM451.71 249.331H441.974V249.125H451.71V249.331ZM432.237 249.331H422.509V249.125H432.237V249.331ZM412.773 249.331H403.036V249.125H412.773V249.331ZM393.308 249.331H383.572V249.125H393.308V249.331ZM373.844 249.331H364.107V249.125H373.844V249.331ZM354.371 249.331H344.642V249.125H354.371V249.331ZM334.906 249.331H325.17V249.125H334.906V249.331ZM315.441 249.331H305.705V249.125H315.441V249.331ZM295.977 249.331H286.24V249.125H295.977V249.331ZM276.504 249.331H266.776V249.125H276.504V249.331ZM257.039 249.331H247.311V249.125H257.039V249.331ZM237.575 249.331H227.871V249.125H237.608L237.575 249.331ZM218.11 249.331H208.373V249.125H218.11V249.331ZM198.637 249.331H188.909V249.125H198.637V249.331ZM179.172 249.331H169.444V249.125H179.189L179.172 249.331ZM159.708 249.331H149.971V249.125H159.708V249.331ZM140.243 249.331H130.507V249.125H140.243V249.331ZM120.77 249.331H111.042V249.125H120.77V249.331Z" fill="#F2F2F2"/>
<path opacity="0.2" d="M544.256 249.125H539.305V249.331H544.256V249.125Z" fill="#F2F2F2"/>
<path opacity="0.2" d="M101.305 249.125H96.3545V249.331H101.305V249.125Z" fill="#F2F2F2"/>
<path opacity="0.2" d="M529.569 249.331H519.841V249.125H529.569V249.331ZM510.104 249.331H500.376V249.125H510.104V249.331ZM490.64 249.331H480.903V249.125H490.64V249.331ZM471.175 249.331H461.439V249.125H471.175V249.331ZM451.71 249.331H441.974V249.125H451.71V249.331ZM432.237 249.331H422.509V249.125H432.237V249.331ZM412.773 249.331H403.036V249.125H412.773V249.331ZM393.308 249.331H383.572V249.125H393.308V249.331ZM373.844 249.331H364.107V249.125H373.844V249.331ZM354.371 249.331H344.642V249.125H354.371V249.331ZM334.906 249.331H325.17V249.125H334.906V249.331ZM315.441 249.331H305.705V249.125H315.441V249.331ZM295.977 249.331H286.24V249.125H295.977V249.331ZM276.504 249.331H266.776V249.125H276.504V249.331ZM257.039 249.331H247.311V249.125H257.039V249.331ZM237.575 249.331H227.871V249.125H237.608L237.575 249.331ZM218.11 249.331H208.373V249.125H218.11V249.331ZM198.637 249.331H188.909V249.125H198.637V249.331ZM179.172 249.331H169.444V249.125H179.189L179.172 249.331ZM159.708 249.331H149.971V249.125H159.708V249.331ZM140.243 249.331H130.507V249.125H140.243V249.331ZM120.77 249.331H111.042V249.125H120.77V249.331Z" fill="#F2F2F2"/>
<path opacity="0.2" d="M544.256 249.125H539.305V249.331H544.256V249.125Z" fill="#F2F2F2"/>
</g>
<path d="M153.246 101.196V249.693" stroke="#F2F2F2" stroke-width="0.1" stroke-miterlimit="10"/>
<path d="M213.48 101.196V249.693" stroke="#F2F2F2" stroke-width="0.1" stroke-miterlimit="10"/>
<path d="M273.714 101.196V249.693" stroke="#F2F2F2" stroke-width="0.1" stroke-miterlimit="10"/>
<path d="M333.947 101.196V249.693" stroke="#F2F2F2" stroke-width="0.1" stroke-miterlimit="10"/>
<path d="M394.182 101.196V249.693" stroke="#F2F2F2" stroke-width="0.1" stroke-miterlimit="10"/>
<path d="M454.415 101.196V249.693" stroke="#F2F2F2" stroke-width="0.1" stroke-miterlimit="10"/>
<path d="M514.649 101.196V249.693" stroke="#F2F2F2" stroke-width="0.1" stroke-miterlimit="10"/>
<path opacity="0.3" d="M527.678 91.175L520.789 98.3448C520.649 98.4946 520.532 98.664 520.442 98.8475L516.168 107.641C515.998 107.994 515.725 108.288 515.385 108.483C515.044 108.679 514.653 108.767 514.262 108.737L512.892 108.63C512.494 108.601 512.115 108.452 511.805 108.201C511.495 107.951 511.27 107.611 511.159 107.229L509.839 102.663C509.724 102.264 509.484 101.912 509.155 101.658C508.825 101.404 508.424 101.262 508.008 101.251C507.592 101.241 507.183 101.364 506.842 101.602C506.501 101.839 506.244 102.179 506.11 102.573L503.89 109.067C503.759 109.454 503.509 109.791 503.176 110.029C502.843 110.267 502.443 110.394 502.034 110.393H493.559C493.094 110.392 492.645 110.225 492.291 109.923C491.938 109.621 491.703 109.204 491.629 108.745L489.236 93.7875C489.172 93.3784 488.98 93.0001 488.687 92.7071C488.395 92.4141 488.016 92.2216 487.607 92.1574C487.197 92.0932 486.778 92.1607 486.409 92.3499C486.041 92.5392 485.742 92.8406 485.556 93.2106L473.286 117.398C473.16 117.649 472.981 117.869 472.761 118.044C472.542 118.219 472.287 118.345 472.015 118.413C471.742 118.481 471.458 118.49 471.182 118.438C470.906 118.387 470.644 118.277 470.415 118.115L463.121 112.973C462.723 112.694 462.236 112.571 461.753 112.629C461.27 112.687 460.826 112.921 460.505 113.286L457.741 116.475C457.659 116.57 457.587 116.672 457.526 116.78L450.15 129.529C449.963 129.856 449.684 130.121 449.349 130.292C449.013 130.464 448.635 130.534 448.26 130.494L443.763 130.048C443.449 130.018 443.132 130.063 442.839 130.18L438.813 131.787C438.346 131.963 437.83 131.954 437.37 131.763C436.91 131.571 436.541 131.212 436.337 130.757L435.454 128.738C435.295 128.377 435.03 128.071 434.695 127.863C434.359 127.654 433.968 127.551 433.573 127.568L428.969 127.782C428.684 127.794 428.405 127.869 428.153 128.002C427.9 128.134 427.68 128.321 427.508 128.549L426.205 130.246C425.99 130.526 425.704 130.743 425.376 130.874C425.048 131.004 424.691 131.044 424.342 130.988C423.994 130.932 423.667 130.783 423.396 130.557C423.126 130.331 422.921 130.035 422.805 129.702L421.155 125.046C421.053 124.756 420.884 124.495 420.662 124.282C420.44 124.07 420.171 123.913 419.877 123.824C419.583 123.735 419.272 123.716 418.969 123.769C418.667 123.823 418.381 123.947 418.135 124.131L410.296 129.999L401.633 136.979C401.336 137.217 400.978 137.363 400.6 137.401C400.222 137.439 399.841 137.367 399.504 137.194L392.779 133.708C392.418 133.523 392.009 133.454 391.607 133.51L377.985 135.413C377.59 135.467 377.22 135.639 376.925 135.907C376.631 136.174 376.424 136.526 376.334 136.913L373.917 147.404C373.841 147.732 373.683 148.034 373.456 148.282C373.23 148.53 372.943 148.716 372.624 148.821C372.304 148.927 371.963 148.948 371.633 148.883C371.303 148.818 370.996 148.669 370.74 148.451C370.514 148.258 370.246 148.119 369.958 148.045C369.67 147.97 369.369 147.962 369.077 148.021C368.786 148.079 368.511 148.203 368.275 148.384C368.038 148.564 367.846 148.795 367.712 149.061L365.855 152.778C365.716 153.052 365.514 153.291 365.267 153.474C365.019 153.657 364.732 153.78 364.428 153.832L360.211 154.533C359.94 154.58 359.681 154.684 359.452 154.838L352.81 159.255C352.49 159.47 352.114 159.584 351.729 159.585H348.618C348.236 159.585 347.862 159.474 347.542 159.265C347.223 159.055 346.971 158.757 346.82 158.406L345.995 156.437C345.889 156.198 345.738 155.983 345.548 155.803C345.358 155.624 345.134 155.485 344.89 155.393C344.645 155.302 344.385 155.26 344.124 155.271C343.863 155.282 343.607 155.345 343.371 155.456L336.159 158.827C335.868 158.963 335.549 159.026 335.228 159.01C334.907 158.994 334.595 158.9 334.319 158.736L331.019 156.75C330.714 156.568 330.367 156.471 330.012 156.47H322.726C322.341 156.471 321.965 156.585 321.645 156.799L314.376 161.62C314.096 161.806 313.772 161.917 313.437 161.941C313.102 161.966 312.766 161.903 312.462 161.76L309.161 160.203C308.777 160.023 308.344 159.974 307.929 160.061C307.513 160.149 307.138 160.369 306.859 160.689L305.291 162.477C305.086 162.714 304.827 162.898 304.535 163.014C304.244 163.129 303.929 163.172 303.617 163.14C303.305 163.108 303.005 163.001 302.744 162.828C302.482 162.655 302.266 162.422 302.114 162.148L301.644 161.324C301.517 161.096 301.345 160.896 301.139 160.736C300.933 160.576 300.696 160.458 300.444 160.391C300.192 160.323 299.929 160.307 299.67 160.342C299.411 160.378 299.162 160.465 298.938 160.598L293.22 163.985C292.923 164.155 292.588 164.245 292.246 164.245C291.904 164.245 291.569 164.155 291.272 163.985L288.913 162.675C288.646 162.525 288.348 162.44 288.043 162.428C287.737 162.415 287.433 162.474 287.155 162.601L284.911 163.623C284.658 163.736 284.385 163.795 284.108 163.795C283.832 163.796 283.558 163.738 283.305 163.626C283.052 163.514 282.826 163.351 282.64 163.146C282.455 162.941 282.315 162.699 282.229 162.436L280.777 158.118C280.653 157.721 280.405 157.375 280.069 157.13C279.733 156.886 279.328 156.755 278.912 156.758H276.8C276.467 156.759 276.14 156.674 275.851 156.511L267.74 152.069C267.41 151.891 267.035 151.811 266.661 151.838C266.286 151.866 265.928 152 265.628 152.225L259.678 156.676C259.341 156.929 258.929 157.065 258.507 157.063H251.023C250.638 157.063 250.262 157.178 249.942 157.393L248.539 158.324C248.309 158.478 248.047 158.582 247.773 158.628C247.5 158.674 247.219 158.661 246.95 158.59C246.682 158.519 246.431 158.391 246.216 158.216C246.001 158.041 245.825 157.822 245.701 157.574L245.363 156.906C245.202 156.58 244.953 156.305 244.644 156.112C244.335 155.92 243.978 155.818 243.613 155.819H239.859C239.561 155.819 239.267 155.888 239 156.019C238.732 156.151 238.498 156.341 238.316 156.577L235.989 159.552C235.796 159.798 235.547 159.995 235.262 160.126C234.977 160.256 234.665 160.316 234.352 160.301C234.039 160.285 233.734 160.195 233.463 160.037C233.193 159.88 232.964 159.66 232.796 159.395L232.136 158.365C231.864 157.934 231.433 157.626 230.936 157.509C230.439 157.392 229.916 157.474 229.479 157.739L227.548 158.892C227.219 159.089 226.84 159.185 226.458 159.169C226.075 159.153 225.706 159.025 225.395 158.802L217.614 153.173C217.475 153.075 217.325 152.992 217.168 152.926L211.087 150.594C210.614 150.422 210.092 150.439 209.631 150.641C209.17 150.844 208.804 151.217 208.612 151.681L204.379 161.983C204.317 162.128 204.276 162.28 204.255 162.436L202.885 171.716C202.825 172.108 202.646 172.473 202.374 172.762L199.477 175.869C199.177 176.186 198.78 176.394 198.349 176.462C197.917 176.529 197.475 176.451 197.093 176.24L192.068 173.455C191.818 173.315 191.54 173.232 191.254 173.211C190.969 173.19 190.682 173.232 190.414 173.334C190.146 173.437 189.905 173.596 189.706 173.802C189.507 174.008 189.355 174.255 189.262 174.526L186.078 183.83C186.005 184.034 185.969 184.249 185.97 184.465V190.332C185.969 190.713 185.857 191.085 185.648 191.403C185.438 191.72 185.14 191.97 184.79 192.121L179.683 194.379C179.399 194.501 179.09 194.554 178.782 194.534C178.474 194.514 178.174 194.421 177.909 194.263L174.064 192.005C173.681 191.781 173.232 191.694 172.793 191.758L166.052 192.722C165.666 192.777 165.273 192.716 164.923 192.545C164.573 192.375 164.282 192.104 164.088 191.766L162.949 189.821C162.704 189.402 162.309 189.09 161.844 188.948L158.782 187.992C158.426 187.878 158.043 187.87 157.682 187.968C157.32 188.066 156.995 188.266 156.744 188.544L152.495 193.258C152.16 193.628 151.697 193.857 151.2 193.901L144.929 194.428C144.638 194.445 144.355 194.529 144.104 194.675L133.171 200.955C132.829 201.149 132.438 201.236 132.047 201.205C131.655 201.174 131.282 201.027 130.976 200.782L127.873 198.31C127.526 198.034 127.096 197.883 126.652 197.881H114.902C114.609 197.882 114.319 197.817 114.055 197.69C113.79 197.563 113.558 197.377 113.376 197.148L110.414 193.456C110.236 193.235 110.013 193.056 109.759 192.93C109.505 192.804 109.227 192.735 108.943 192.727C108.66 192.719 108.378 192.773 108.118 192.884C107.858 192.996 107.625 193.163 107.435 193.373L103.871 197.329C103.548 197.686 103.369 198.15 103.367 198.631V247.781C103.367 248.299 103.573 248.796 103.94 249.162C104.307 249.529 104.804 249.735 105.323 249.735H529.213C529.471 249.735 529.725 249.684 529.963 249.585C530.201 249.486 530.417 249.342 530.599 249.16C530.78 248.977 530.924 248.761 531.022 248.523C531.12 248.285 531.17 248.03 531.169 247.773L531.053 92.5678C531.059 92.1747 530.946 91.789 530.73 91.4606C530.513 91.1323 530.203 90.8764 529.839 90.7263C529.476 90.5762 529.075 90.5387 528.69 90.6187C528.304 90.6987 527.952 90.8925 527.678 91.175Z" fill="#EC008C"/>
<path opacity="0.3" d="M527.3 154.821L520.913 159.074C520.689 159.225 520.491 159.411 520.328 159.626L516.359 164.859C516.118 165.169 515.807 165.417 515.451 165.584C515.095 165.75 514.705 165.829 514.312 165.815L513.017 165.749C512.572 165.727 512.142 165.583 511.774 165.333C511.406 165.083 511.114 164.736 510.929 164.332L510.104 162.576C509.92 162.164 509.623 161.812 509.248 161.56C508.873 161.308 508.434 161.167 507.982 161.152C507.53 161.137 507.083 161.25 506.693 161.477C506.302 161.704 505.983 162.037 505.772 162.436L504.122 165.592C503.916 165.98 503.608 166.303 503.232 166.528C502.855 166.753 502.424 166.871 501.985 166.87H493.8C493.26 166.872 492.736 166.693 492.31 166.361C491.885 166.029 491.584 165.564 491.457 165.04L489.493 157.186C489.383 156.749 489.154 156.35 488.829 156.036C488.505 155.723 488.099 155.506 487.657 155.41C487.216 155.315 486.756 155.345 486.331 155.498C485.906 155.65 485.532 155.918 485.252 156.272L473.452 171.172C473.12 171.595 472.654 171.895 472.13 172.022C471.606 172.149 471.055 172.096 470.564 171.872L462.982 168.452C462.585 168.267 462.144 168.192 461.708 168.237C461.272 168.282 460.857 168.445 460.506 168.708L457.792 170.71C457.662 170.807 457.543 170.917 457.437 171.04L450.275 178.96C450.034 179.235 449.733 179.453 449.396 179.596C449.059 179.738 448.693 179.803 448.327 179.784L443.649 179.487C443.394 179.472 443.138 179.494 442.89 179.553L438.673 180.632C438.193 180.758 437.685 180.732 437.22 180.558C436.754 180.384 436.354 180.07 436.074 179.66L435.596 178.951C435.367 178.619 435.058 178.348 434.698 178.166C434.337 177.983 433.937 177.893 433.533 177.905L428.83 178.045C428.287 178.054 427.765 178.252 427.353 178.605L426.198 179.569C425.924 179.799 425.603 179.965 425.258 180.055C424.912 180.146 424.551 180.159 424.2 180.094C423.849 180.028 423.517 179.886 423.227 179.677C422.938 179.468 422.698 179.198 422.526 178.885L421.305 176.677C421.007 176.137 420.514 175.731 419.926 175.543C419.339 175.354 418.701 175.397 418.144 175.663L410.231 179.462L401.477 183.978C401.191 184.125 400.879 184.213 400.559 184.237C400.238 184.261 399.917 184.221 399.612 184.118L392.64 181.811C392.326 181.708 391.995 181.669 391.666 181.696L378.167 182.841C377.709 182.888 377.274 183.062 376.909 183.343C376.545 183.624 376.266 184.001 376.104 184.432L374.149 189.887C374.031 190.215 373.843 190.513 373.598 190.762C373.354 191.011 373.059 191.203 372.732 191.327C372.406 191.451 372.057 191.502 371.709 191.479C371.361 191.455 371.023 191.356 370.716 191.189L370.634 191.148C370.133 190.871 369.549 190.781 368.987 190.896C368.426 191.011 367.924 191.322 367.573 191.774L366.038 193.736C365.63 194.247 365.037 194.575 364.388 194.651L360.163 195.104C359.925 195.128 359.691 195.186 359.47 195.277L352.778 198.137C352.477 198.26 352.155 198.325 351.829 198.326H348.611C348.218 198.326 347.83 198.23 347.482 198.046C347.134 197.862 346.836 197.596 346.614 197.271L346.152 196.596C345.863 196.173 345.446 195.854 344.962 195.683C344.479 195.513 343.954 195.501 343.463 195.648L335.962 197.914C335.448 198.069 334.896 198.049 334.394 197.856L330.912 196.521C330.649 196.418 330.37 196.362 330.087 196.357H322.612C322.288 196.356 321.967 196.424 321.671 196.554L314.245 199.702C313.723 199.927 313.138 199.96 312.595 199.793L308.923 198.697C308.565 198.591 308.188 198.568 307.82 198.631C307.452 198.694 307.104 198.84 306.802 199.06L305.193 200.238C304.706 200.594 304.103 200.755 303.503 200.69C302.903 200.624 302.349 200.337 301.951 199.884L301.711 199.612C301.387 199.242 300.957 198.98 300.479 198.86C300.001 198.741 299.499 198.77 299.038 198.944L293.056 201.227C292.523 201.421 291.938 201.421 291.405 201.227L288.782 200.288C288.302 200.122 287.784 200.108 287.296 200.246L284.821 200.963C284.279 201.119 283.699 201.081 283.182 200.856C282.666 200.63 282.244 200.231 281.991 199.727L281.067 197.873C280.865 197.472 280.557 197.136 280.175 196.9C279.793 196.664 279.354 196.539 278.905 196.538H276.76C276.479 196.543 276.2 196.498 275.934 196.406L267.609 193.489C267.31 193.382 266.992 193.335 266.675 193.352C266.358 193.369 266.047 193.449 265.761 193.588L259.68 196.505C259.352 196.66 258.994 196.742 258.632 196.744H250.95C250.624 196.745 250.302 196.81 250.001 196.933L248.433 197.609C247.943 197.817 247.397 197.858 246.881 197.725C246.365 197.593 245.907 197.294 245.578 196.876C245.353 196.586 245.064 196.351 244.733 196.189C244.403 196.028 244.04 195.944 243.672 195.944H239.794C239.235 195.944 238.693 196.136 238.259 196.488L236.007 198.334C235.544 198.717 234.954 198.913 234.353 198.882C233.753 198.852 233.186 198.598 232.764 198.17L232.252 197.659C231.922 197.326 231.502 197.097 231.043 196.999C230.585 196.901 230.108 196.938 229.67 197.107L227.425 197.972C226.812 198.2 226.132 198.177 225.536 197.906L217.64 194.247C217.5 194.18 217.353 194.131 217.202 194.098L211.006 192.574C210.517 192.452 210.002 192.487 209.534 192.673C209.066 192.859 208.669 193.188 208.398 193.612L204.504 199.678C204.355 199.911 204.246 200.167 204.182 200.436L203.002 205.587C202.861 206.175 202.508 206.691 202.012 207.037L199.437 208.801C199.124 209.016 198.764 209.154 198.386 209.203C198.009 209.252 197.625 209.21 197.267 209.081L191.97 207.202C191.416 207.007 190.81 207.019 190.265 207.238C189.72 207.456 189.273 207.865 189.008 208.389L186.219 213.597C186.035 213.948 185.939 214.338 185.938 214.734V217.083C185.936 217.61 185.762 218.123 185.442 218.542C185.121 218.962 184.673 219.265 184.164 219.407L179.527 220.693C179.035 220.832 178.511 220.809 178.034 220.627L173.991 219.102C173.649 218.971 173.282 218.92 172.918 218.954L165.946 219.588C165.574 219.624 165.199 219.573 164.851 219.439C164.503 219.304 164.191 219.09 163.941 218.814L163.115 217.899C162.772 217.514 162.311 217.253 161.803 217.157L158.627 216.514C158.302 216.453 157.968 216.457 157.645 216.526C157.322 216.596 157.016 216.729 156.745 216.918L152.562 219.893C152.188 220.156 151.748 220.31 151.291 220.338L144.88 220.676C144.638 220.691 144.399 220.741 144.171 220.824L133.04 224.945C132.728 225.063 132.395 225.114 132.062 225.094C131.729 225.074 131.404 224.984 131.109 224.83L127.891 223.181C127.551 223.008 127.175 222.918 126.793 222.918H114.829C114.277 222.918 113.741 222.729 113.311 222.382L110.415 220.066C110.004 219.738 109.498 219.552 108.972 219.538C108.447 219.523 107.931 219.679 107.502 219.984L104.4 222.193C104.086 222.417 103.83 222.712 103.654 223.055C103.477 223.397 103.385 223.777 103.385 224.162V247.328C103.385 247.968 103.639 248.583 104.093 249.035C104.546 249.488 105.161 249.743 105.802 249.743H528.752C529.393 249.743 530.008 249.488 530.462 249.035C530.915 248.583 531.17 247.968 531.17 247.328L531.054 156.865C531.06 156.426 530.946 155.993 530.724 155.614C530.501 155.235 530.18 154.923 529.794 154.713C529.408 154.503 528.971 154.402 528.532 154.421C528.092 154.44 527.666 154.578 527.3 154.821Z" fill="#EC008C"/>
<path d="M529.007 159.98C532.197 159.98 534.783 157.397 534.783 154.211C534.783 151.025 532.197 148.443 529.007 148.443C525.817 148.443 523.231 151.025 523.231 154.211C523.231 157.397 525.817 159.98 529.007 159.98Z" fill="#EC008C"/>
<path opacity="0.3" d="M528.636 211.281L520.789 213.894C520.638 213.945 520.494 214.015 520.36 214.1L516.052 216.943C515.739 217.147 515.37 217.251 514.996 217.24L512.315 217.174C512.065 217.168 511.819 217.112 511.592 217.009C511.365 216.906 511.162 216.757 510.994 216.572L509.344 214.759C509.18 214.578 508.982 214.431 508.76 214.328C508.539 214.224 508.299 214.166 508.055 214.156C507.81 214.146 507.567 214.184 507.337 214.27C507.108 214.355 506.899 214.485 506.72 214.652L503.94 217.256C503.602 217.579 503.153 217.759 502.685 217.759H493.048C492.704 217.761 492.367 217.666 492.075 217.485C491.783 217.305 491.549 217.045 491.398 216.737L489.195 212.344C489.08 212.115 488.918 211.913 488.72 211.749C488.522 211.586 488.292 211.466 488.045 211.397C487.798 211.328 487.539 211.312 487.285 211.348C487.031 211.385 486.788 211.475 486.571 211.611L472.931 220.239C472.519 220.498 472.021 220.583 471.545 220.478L462.205 218.377C461.859 218.295 461.498 218.318 461.165 218.443L457.757 219.704C457.668 219.732 457.582 219.77 457.502 219.819L449.968 223.989C449.678 224.147 449.35 224.227 449.019 224.22L443.442 224.038C443.346 224.03 443.249 224.03 443.153 224.038L437.789 224.723C437.323 224.779 436.851 224.659 436.469 224.385L435.38 223.561C435.058 223.323 434.667 223.198 434.266 223.206L428.383 223.289C428.148 223.289 427.915 223.336 427.698 223.429L425.058 224.541C424.735 224.675 424.38 224.714 424.035 224.654C423.69 224.594 423.37 224.438 423.111 224.203L420.949 222.291C420.728 222.093 420.463 221.951 420.176 221.878C419.888 221.805 419.587 221.802 419.298 221.871L410.272 224.047L400.989 226.445C400.739 226.499 400.48 226.499 400.23 226.445L392.391 225.143C392.265 225.135 392.138 225.135 392.012 225.143L377.514 225.794C377.236 225.806 376.965 225.882 376.72 226.014C376.476 226.147 376.265 226.334 376.103 226.56L373.917 229.568C373.698 229.874 373.391 230.105 373.037 230.23C372.683 230.356 372.299 230.369 371.936 230.269L369.601 229.626C369.353 229.561 369.093 229.547 368.839 229.587C368.585 229.627 368.341 229.719 368.124 229.857L365.789 231.348C365.52 231.515 365.214 231.611 364.898 231.629L359.947 231.901C359.854 231.893 359.76 231.893 359.667 231.901L352.521 233.425C352.394 233.451 352.264 233.465 352.133 233.466H347.942C347.553 233.466 347.174 233.342 346.861 233.112L345.772 232.288C345.58 232.145 345.361 232.041 345.129 231.983C344.897 231.925 344.655 231.914 344.419 231.95L335.499 233.285C335.294 233.318 335.085 233.318 334.88 233.285L330.689 232.461C330.573 232.449 330.457 232.449 330.342 232.461H322.297C322.171 232.449 322.044 232.449 321.917 232.461L313.757 234.192C313.539 234.233 313.315 234.233 313.097 234.192L308.237 233.458C307.931 233.416 307.619 233.45 307.329 233.557L304.21 234.694C303.959 234.788 303.691 234.825 303.424 234.802C303.157 234.779 302.899 234.697 302.667 234.562L301.19 233.738C300.815 233.517 300.372 233.441 299.944 233.524L292.518 234.933C292.297 234.974 292.071 234.974 291.85 234.933L288.277 234.299C288.083 234.27 287.886 234.27 287.691 234.299L283.747 234.867C283.465 234.91 283.177 234.887 282.906 234.798C282.636 234.709 282.389 234.558 282.188 234.356L280.884 233.112C280.536 232.771 280.068 232.579 279.58 232.576H276.453C276.349 232.585 276.244 232.585 276.14 232.576L267.014 230.977C266.766 230.924 266.51 230.924 266.263 230.977L259.365 232.626C259.224 232.659 259.08 232.675 258.936 232.675H250.627C250.501 232.663 250.374 232.663 250.247 232.675L247.434 233.277C246.96 233.408 246.453 233.349 246.023 233.112L245.247 232.609C244.951 232.421 244.608 232.321 244.257 232.321H239.232C238.994 232.322 238.758 232.37 238.539 232.461L235.024 233.895C234.782 233.996 234.521 234.043 234.258 234.033C233.996 234.023 233.739 233.956 233.506 233.837L231.641 232.898C231.279 232.717 230.867 232.659 230.469 232.733L226.789 233.442C226.539 233.495 226.28 233.495 226.03 233.442L217.498 231.464H217.308L210.056 230.565C209.572 230.511 209.087 230.647 208.702 230.945L204.577 234.142C204.346 234.321 204.162 234.552 204.04 234.818L203.116 236.87C203.012 237.096 202.863 237.298 202.679 237.465C202.495 237.632 202.279 237.76 202.044 237.842L198.875 238.922C198.582 239.029 198.266 239.054 197.959 238.996L190.913 237.743C190.632 237.695 190.343 237.712 190.07 237.794C189.796 237.875 189.545 238.019 189.337 238.213L186.54 240.826C186.356 240.998 186.21 241.206 186.111 241.437C186.011 241.668 185.961 241.917 185.962 242.169C185.962 242.611 185.802 243.039 185.51 243.372C185.219 243.706 184.817 243.922 184.378 243.982L179.089 244.716C178.892 244.748 178.691 244.748 178.495 244.716L173.709 243.809C173.566 243.792 173.422 243.792 173.28 243.809L165.284 244.172C164.949 244.184 164.615 244.108 164.319 243.949L162.916 243.183C162.701 243.06 162.462 242.984 162.215 242.96L158.015 242.54C157.736 242.511 157.454 242.545 157.19 242.639L152.239 244.394C152.056 244.459 151.864 244.495 151.67 244.501L144.632 244.691C144.536 244.683 144.439 244.683 144.343 244.691L132.42 246.891C132.161 246.945 131.894 246.945 131.636 246.891L127.576 245.853C127.425 245.817 127.27 245.798 127.114 245.795H114.317C114.082 245.798 113.849 245.753 113.632 245.663L109.622 244.064C109.202 243.904 108.738 243.904 108.318 244.064L104.588 245.391C104.231 245.516 103.921 245.749 103.703 246.058C103.484 246.366 103.367 246.735 103.367 247.114V247.938C103.366 248.179 103.413 248.418 103.504 248.64C103.596 248.863 103.731 249.066 103.901 249.237C104.071 249.408 104.273 249.543 104.496 249.635C104.719 249.728 104.958 249.776 105.199 249.776H529.312C529.553 249.776 529.792 249.728 530.015 249.635C530.238 249.543 530.44 249.408 530.61 249.237C530.78 249.066 530.915 248.863 531.007 248.64C531.098 248.418 531.145 248.179 531.144 247.938L531.037 213.103C531.048 212.807 530.988 212.513 530.862 212.246C530.735 211.979 530.546 211.746 530.311 211.567C530.075 211.389 529.8 211.269 529.508 211.22C529.217 211.17 528.917 211.191 528.636 211.281Z" fill="#EC008C"/>
<path d="M211.334 198.714C214.524 198.714 217.11 196.131 217.11 192.945C217.11 189.759 214.524 187.176 211.334 187.176C208.145 187.176 205.559 189.759 205.559 192.945C205.559 196.131 208.145 198.714 211.334 198.714Z" fill="#EC008C"/>
<path d="M488.578 162.453C491.768 162.453 494.353 159.87 494.353 156.684C494.353 153.498 491.768 150.915 488.578 150.915C485.388 150.915 482.802 153.498 482.802 156.684C482.802 159.87 485.388 162.453 488.578 162.453Z" fill="#EC008C"/>
<path d="M345.005 201.186C348.195 201.186 350.781 198.603 350.781 195.417C350.781 192.231 348.195 189.648 345.005 189.648C341.815 189.648 339.229 192.231 339.229 195.417C339.229 198.603 341.815 201.186 345.005 201.186Z" fill="#EC008C"/>
<path d="M420.091 180.583C423.281 180.583 425.867 178 425.867 174.814C425.867 171.628 423.281 169.045 420.091 169.045C416.901 169.045 414.315 171.628 414.315 174.814C414.315 178 416.901 180.583 420.091 180.583Z" fill="#EC008C"/>
<path d="M531.878 156.816C531.877 156.38 531.757 155.953 531.532 155.579C531.307 155.206 530.985 154.9 530.6 154.695C530.215 154.49 529.781 154.392 529.346 154.413C528.91 154.434 528.488 154.572 528.124 154.813L521.738 159.065C521.514 159.216 521.316 159.403 521.152 159.618L517.183 164.851C516.942 165.161 516.631 165.409 516.275 165.575C515.92 165.742 515.529 165.821 515.137 165.807L513.841 165.741C513.397 165.719 512.967 165.575 512.598 165.325C512.23 165.075 511.938 164.728 511.754 164.323L510.929 162.568C510.744 162.156 510.447 161.803 510.072 161.552C509.697 161.3 509.258 161.159 508.806 161.144C508.355 161.129 507.908 161.242 507.517 161.469C507.126 161.696 506.807 162.028 506.597 162.428L504.946 165.584C504.74 165.971 504.433 166.295 504.056 166.52C503.679 166.745 503.248 166.863 502.809 166.862H494.624C494.084 166.864 493.56 166.685 493.135 166.353C492.709 166.021 492.409 165.556 492.281 165.032L490.317 157.178C490.208 156.741 489.978 156.342 489.653 156.028C489.329 155.714 488.923 155.497 488.481 155.402C488.04 155.307 487.581 155.337 487.155 155.489C486.73 155.642 486.356 155.91 486.076 156.264L474.277 171.163C473.944 171.587 473.478 171.887 472.954 172.014C472.43 172.141 471.879 172.088 471.389 171.864L463.806 168.444C463.409 168.258 462.969 168.184 462.533 168.229C462.097 168.274 461.681 168.437 461.33 168.699L458.616 170.702C458.486 170.799 458.367 170.909 458.261 171.032L451.099 178.951C450.858 179.227 450.558 179.445 450.22 179.587C449.883 179.73 449.517 179.794 449.152 179.775L444.473 179.479C444.218 179.464 443.962 179.486 443.714 179.545L439.498 180.624C439.017 180.75 438.509 180.724 438.044 180.549C437.578 180.375 437.178 180.062 436.899 179.652L436.42 178.943C436.191 178.61 435.882 178.34 435.522 178.157C435.162 177.974 434.761 177.885 434.357 177.896L429.654 178.037C429.111 178.046 428.589 178.244 428.177 178.597L427.022 179.561C426.748 179.791 426.427 179.957 426.082 180.047C425.736 180.138 425.375 180.151 425.024 180.086C424.673 180.02 424.341 179.878 424.051 179.669C423.762 179.46 423.522 179.19 423.35 178.877L422.129 176.669C421.831 176.129 421.338 175.723 420.75 175.534C420.163 175.346 419.525 175.389 418.969 175.655L411.056 179.454L402.301 183.97C402.015 184.117 401.703 184.205 401.383 184.229C401.063 184.253 400.741 184.213 400.436 184.11L393.464 181.803C393.15 181.7 392.819 181.661 392.49 181.687L378.991 182.841C378.533 182.888 378.098 183.062 377.733 183.343C377.369 183.624 377.09 184.001 376.929 184.432L374.973 189.887C374.855 190.215 374.667 190.514 374.423 190.762C374.178 191.011 373.883 191.203 373.557 191.327C373.231 191.451 372.882 191.502 372.534 191.479C372.185 191.455 371.847 191.356 371.541 191.189L371.458 191.148C370.957 190.871 370.373 190.781 369.811 190.896C369.25 191.011 368.748 191.322 368.397 191.775L366.862 193.736C366.455 194.247 365.861 194.575 365.212 194.651L360.987 195.104C360.749 195.128 360.516 195.186 360.294 195.277L353.602 198.137C353.301 198.26 352.979 198.325 352.653 198.326H349.436C349.042 198.326 348.654 198.23 348.306 198.046C347.958 197.862 347.66 197.596 347.439 197.271L346.977 196.596C346.687 196.173 346.27 195.854 345.787 195.683C345.303 195.513 344.778 195.501 344.287 195.648L336.786 197.914C336.272 198.069 335.72 198.049 335.219 197.857L331.737 196.521C331.474 196.418 331.194 196.362 330.911 196.357H323.436C323.112 196.356 322.791 196.424 322.495 196.554L315.069 199.703C314.547 199.928 313.962 199.96 313.419 199.793L309.747 198.697C309.389 198.591 309.012 198.568 308.644 198.631C308.277 198.694 307.928 198.84 307.626 199.06L306.018 200.238C305.53 200.594 304.927 200.755 304.327 200.69C303.727 200.624 303.173 200.337 302.775 199.884L302.535 199.612C302.211 199.242 301.781 198.98 301.303 198.86C300.826 198.741 300.323 198.77 299.862 198.944L293.88 201.227C293.347 201.421 292.763 201.421 292.23 201.227L289.606 200.288C289.127 200.122 288.608 200.108 288.121 200.246L285.645 200.963C285.103 201.12 284.524 201.081 284.007 200.856C283.49 200.63 283.068 200.231 282.815 199.727L281.891 197.873C281.689 197.473 281.381 197.136 280.999 196.9C280.617 196.664 280.178 196.539 279.729 196.538H277.584C277.303 196.543 277.024 196.498 276.759 196.406L268.433 193.489C268.134 193.382 267.816 193.335 267.499 193.352C267.182 193.369 266.871 193.449 266.585 193.588L260.504 196.505C260.176 196.66 259.818 196.742 259.456 196.744H251.774C251.448 196.745 251.126 196.81 250.825 196.934L249.257 197.609C248.767 197.817 248.222 197.858 247.706 197.725C247.19 197.593 246.732 197.294 246.402 196.876C246.177 196.586 245.888 196.351 245.558 196.189C245.227 196.028 244.864 195.944 244.496 195.945H240.618C240.059 195.944 239.517 196.136 239.084 196.488L236.831 198.334C236.368 198.717 235.778 198.913 235.177 198.883C234.577 198.852 234.01 198.598 233.588 198.17L233.077 197.659C232.746 197.326 232.326 197.097 231.868 196.999C231.409 196.901 230.932 196.939 230.494 197.107L228.25 197.972C227.636 198.2 226.956 198.177 226.36 197.906L218.464 194.247C218.324 194.18 218.178 194.131 218.026 194.099L211.83 192.574C211.341 192.452 210.826 192.487 210.358 192.673C209.89 192.859 209.493 193.188 209.222 193.612L205.328 199.678C205.179 199.911 205.07 200.167 205.006 200.436L203.826 205.587C203.685 206.175 203.332 206.691 202.836 207.037L200.262 208.801C199.948 209.016 199.588 209.154 199.21 209.203C198.833 209.252 198.449 209.21 198.091 209.081L192.794 207.202C192.24 207.007 191.634 207.019 191.089 207.238C190.544 207.456 190.097 207.865 189.832 208.389L187.043 213.597C186.86 213.948 186.763 214.338 186.763 214.734V217.083C186.76 217.611 186.586 218.123 186.266 218.542C185.946 218.962 185.497 219.265 184.989 219.407L180.351 220.693C179.859 220.832 179.336 220.809 178.858 220.627L174.815 219.102C174.473 218.971 174.106 218.92 173.742 218.954L166.77 219.588C166.398 219.624 166.023 219.573 165.675 219.439C165.327 219.304 165.015 219.09 164.765 218.814L163.94 217.899C163.596 217.514 163.135 217.253 162.628 217.157L159.451 216.514C159.126 216.453 158.793 216.457 158.469 216.526C158.146 216.596 157.84 216.729 157.57 216.918L153.386 219.893C153.012 220.156 152.572 220.31 152.116 220.338L145.704 220.676C145.462 220.691 145.223 220.741 144.995 220.825L133.864 224.945C133.552 225.063 133.219 225.114 132.886 225.094C132.553 225.074 132.229 224.984 131.933 224.83L128.715 223.182C128.375 223.008 127.999 222.918 127.618 222.918H115.653C115.101 222.918 114.565 222.729 114.135 222.382L111.239 220.066C110.829 219.738 110.322 219.553 109.797 219.538C109.271 219.523 108.755 219.679 108.326 219.984L105.224 222.193C104.91 222.417 104.654 222.712 104.478 223.055C104.301 223.397 104.209 223.777 104.209 224.162" stroke="#EC008C" stroke-miterlimit="10"/>
<path opacity="0.2" d="M562.012 283.556H79.3154V283.638H562.012V283.556Z" fill="#F2F2F2"/>
<path opacity="0.3" d="M153.577 287.718C155.855 287.718 157.702 285.873 157.702 283.597C157.702 281.322 155.855 279.477 153.577 279.477C151.298 279.477 149.451 281.322 149.451 283.597C149.451 285.873 151.298 287.718 153.577 287.718Z" fill="#EC008C"/>
<path opacity="0.3" d="M213.811 287.718C216.09 287.718 217.937 285.873 217.937 283.597C217.937 281.322 216.09 279.477 213.811 279.477C211.533 279.477 209.686 281.322 209.686 283.597C209.686 285.873 211.533 287.718 213.811 287.718Z" fill="#EC008C"/>
<path opacity="0.3" d="M274.045 287.718C276.323 287.718 278.17 285.873 278.17 283.597C278.17 281.322 276.323 279.477 274.045 279.477C271.766 279.477 269.919 281.322 269.919 283.597C269.919 285.873 271.766 287.718 274.045 287.718Z" fill="#EC008C"/>
<path opacity="0.3" d="M334.279 287.718C336.557 287.718 338.404 285.873 338.404 283.597C338.404 281.322 336.557 279.477 334.279 279.477C332 279.477 330.153 281.322 330.153 283.597C330.153 285.873 332 287.718 334.279 287.718Z" fill="#EC008C"/>
<path opacity="0.3" d="M394.512 287.718C396.791 287.718 398.638 285.873 398.638 283.597C398.638 281.322 396.791 279.477 394.512 279.477C392.234 279.477 390.387 281.322 390.387 283.597C390.387 285.873 392.234 287.718 394.512 287.718Z" fill="#EC008C"/>
<path opacity="0.3" d="M454.747 287.718C457.025 287.718 458.872 285.873 458.872 283.597C458.872 281.322 457.025 279.477 454.747 279.477C452.468 279.477 450.621 281.322 450.621 283.597C450.621 285.873 452.468 287.718 454.747 287.718Z" fill="#EC008C"/>
<path opacity="0.3" d="M514.981 287.718C517.259 287.718 519.106 285.873 519.106 283.597C519.106 281.322 517.259 279.477 514.981 279.477C512.703 279.477 510.855 281.322 510.855 283.597C510.855 285.873 512.703 287.718 514.981 287.718Z" fill="#EC008C"/>
<path d="M45.2953 442.503C42.8199 437.962 45.6253 432.399 48.835 428.353C52.0448 424.306 55.9394 420.112 55.8568 414.928C55.7331 407.511 47.8532 403.127 41.5575 399.196C36.8818 396.276 32.5717 392.809 28.7186 388.87C27.1059 387.355 25.7711 385.57 24.7745 383.595C23.4708 380.694 23.5038 377.398 23.5863 374.225C23.8668 363.632 24.3922 353.059 25.1623 342.505" stroke="#28292F" stroke-width="4" stroke-miterlimit="10"/>
<path d="M13.1902 341.945C13.278 340.007 13.8532 338.123 14.8627 336.467C15.8722 334.811 17.2835 333.435 18.9661 332.467L21.557 337.585L21.4745 331.388C22.7138 331.025 24.0046 330.869 25.2948 330.926C27.5739 331.039 29.7684 331.824 31.6016 333.181C33.4348 334.538 34.8244 336.407 35.5953 338.552C36.3661 340.697 36.4836 343.022 35.9329 345.234C35.3822 347.446 34.188 349.445 32.501 350.98C30.8139 352.514 28.7096 353.516 26.4535 353.857C24.1974 354.199 21.8905 353.865 19.824 352.899C17.7574 351.932 16.0238 350.376 14.8417 348.426C13.6596 346.477 13.0821 344.222 13.182 341.945H13.1902Z" fill="#AC0F73"/>
<path d="M33.8429 420.227C35.0576 422.578 37.0446 424.441 39.471 425.504C41.8973 426.566 44.6155 426.763 47.17 426.062C49.7245 425.361 51.9601 423.804 53.5021 421.652C55.0441 419.501 55.7987 416.885 55.6396 414.244C55.4804 411.603 54.4172 409.096 52.628 407.145C50.8388 405.194 48.4324 403.916 45.8122 403.525C43.1919 403.135 40.517 403.656 38.2357 405.002C35.9544 406.347 34.2054 408.435 33.2818 410.915L40.5181 416.79L32.5557 414.953C32.5586 416.788 32.9999 418.596 33.8429 420.227Z" fill="#AC0F73"/>
<path d="M39.561 397.77C42.4383 397.973 45.2875 397.094 47.5484 395.304C49.8093 393.515 51.3183 390.946 51.7786 388.102C52.2389 385.258 51.6171 382.345 50.0357 379.936C48.4543 377.526 46.0276 375.795 43.2328 375.082L43.2988 379.846L40.6749 374.662C39.1555 374.588 37.6364 374.814 36.2048 375.328C34.7732 375.841 33.4572 376.633 32.3325 377.656C31.2078 378.679 30.2965 379.913 29.6509 381.289C29.0053 382.665 28.6381 384.154 28.5703 385.672C28.5025 387.007 28.6701 388.343 29.0654 389.62C29.7613 391.892 31.143 393.895 33.0216 395.354C34.9002 396.813 37.184 397.657 39.561 397.77Z" fill="#AC0F73"/>
<path d="M11.4487 379.087C13.2263 379.153 14.9949 378.807 16.6168 378.077C18.2387 377.348 19.67 376.254 20.7991 374.881C21.9282 373.508 22.7246 371.894 23.1263 370.163C23.528 368.432 23.5241 366.632 23.1149 364.903C22.7057 363.174 21.9022 361.563 20.7671 360.195C19.6321 358.827 18.196 357.74 16.571 357.017C14.946 356.295 13.1758 355.957 11.3985 356.03C9.62126 356.103 7.88485 356.585 6.32467 357.438L8.37097 363.042L4.16285 359.004C1.90776 361.067 0.563597 363.938 0.425049 366.989C0.370113 368.061 0.467335 369.135 0.713835 370.179C1.29169 372.627 2.65184 374.82 4.5886 376.427C6.52536 378.035 8.93343 378.968 11.4487 379.087Z" fill="#AC0F73"/>
<path opacity="0.1" d="M14.7495 345.027C17.4229 345.315 20.022 346.148 22.7036 346.312C25.3853 346.477 28.331 345.834 30.0307 343.758C30.9384 342.637 31.4004 341.211 32.1678 339.992C32.9007 338.851 33.9039 337.908 35.0887 337.247C35.7874 338.706 36.1713 340.295 36.2155 341.912C36.2597 343.528 35.9631 345.136 35.3451 346.63C34.7271 348.125 33.8014 349.473 32.6281 350.587C31.4548 351.702 30.0601 352.557 28.5344 353.098C27.0087 353.64 25.3862 353.855 23.772 353.729C22.1578 353.604 20.5881 353.141 19.1646 352.37C17.7411 351.6 16.4956 350.539 15.509 349.257C14.5224 347.975 13.8166 346.5 13.4375 344.928C13.8776 344.944 14.3149 344.977 14.7495 345.027Z" fill="black"/>
<path opacity="0.1" d="M11.4484 379.087C13.4456 379.189 15.4349 378.77 17.2216 377.873C19.0084 376.976 20.5314 375.631 21.6416 373.97C22.7519 372.309 23.4113 370.388 23.5554 368.396C23.6995 366.404 23.3234 364.408 22.4637 362.605C21.5449 363.222 20.7547 364.011 20.1369 364.929C19.3118 366.174 18.8085 367.608 17.8431 368.753C16.036 370.871 12.9583 371.563 10.1612 371.44C7.36401 371.316 4.66586 370.517 1.90995 370.261C1.52215 370.261 1.13434 370.203 0.738281 370.195C1.31804 372.636 2.67585 374.823 4.60737 376.427C6.5389 378.03 8.93966 378.964 11.4484 379.087Z" fill="black"/>
<path opacity="0.1" d="M39.5603 397.77C41.5433 397.873 43.5193 397.464 45.2977 396.582C47.0761 395.7 48.5968 394.375 49.7131 392.734C50.8294 391.094 51.5036 389.195 51.6706 387.218C51.8376 385.242 51.4918 383.256 50.6665 381.453C49.7057 382.079 48.867 382.875 48.1911 383.801C47.2917 385.07 46.7307 386.529 45.7158 387.699C43.7602 389.875 40.4762 390.641 37.5223 390.567C34.5684 390.493 31.8867 389.809 29.04 389.587C29.7317 391.869 31.1146 393.882 32.9986 395.348C34.8826 396.813 37.175 397.659 39.5603 397.77Z" fill="black"/>
<path opacity="0.1" d="M33.8428 420.227C35.0956 423.024 37.4094 425.209 40.2752 426.301C43.141 427.394 46.324 427.305 49.124 426.054C51.9241 424.802 54.1117 422.491 55.2057 419.629C56.2997 416.767 56.2105 413.588 54.9577 410.791C54.0021 411.412 53.1454 412.174 52.4163 413.049C51.3106 414.392 50.5845 415.917 49.3138 417.17C46.9457 419.494 43.1254 420.466 39.7176 420.54C37.755 420.548 35.7935 420.444 33.8428 420.227Z" fill="black"/>
<path d="M62.7638 437.278C62.7638 437.278 53.6214 436.998 50.8655 435.036C48.1096 433.075 36.8384 430.743 36.1288 433.883C35.4192 437.023 22.3905 449.541 32.7046 449.59C43.0186 449.64 56.6826 447.983 59.4385 446.294C62.1945 444.604 62.7638 437.278 62.7638 437.278Z" fill="#2C2D34"/>
<path opacity="0.2" d="M32.5223 448.494C42.8446 448.577 56.5004 446.895 59.2481 445.198C61.3439 443.92 62.1773 439.346 62.4578 437.245H62.7631C62.7631 437.245 62.1855 444.604 59.4626 446.31C56.7397 448.016 43.0509 449.673 32.7286 449.607C29.7499 449.607 28.7268 448.527 28.7845 446.961C29.1723 447.884 30.3028 448.478 32.5223 448.494Z" fill="black"/>
<path d="M638.782 335.838C638.181 337.559 637.953 339.387 638.113 341.203C638.514 343.016 639.366 344.699 640.589 346.098C641.201 347.073 642.154 347.786 643.262 348.101C643.837 348.154 644.415 348.05 644.934 347.798C645.453 347.547 645.894 347.158 646.208 346.675C646.827 345.7 647.196 344.588 647.28 343.436C647.513 340.369 647.36 337.285 646.827 334.255C646.48 331.709 646.389 328.907 645.713 326.443C643.963 326.443 641.942 326.122 640.968 327.786C639.722 329.954 639.425 333.415 638.782 335.838Z" fill="#FFC0C6"/>
<path d="M648.353 290.47C647.924 291.682 647.322 292.836 646.926 294.063C646.547 295.342 646.271 296.648 646.101 297.97C644.876 305.73 643.223 313.417 641.15 320.996C640.412 323.222 639.995 325.542 639.912 327.885L644.632 327.72C645.076 327.65 645.53 327.75 645.902 328C646.307 328.363 646.579 329.162 647.091 328.956C647.976 324.428 648.596 319.852 648.947 315.251C649.137 311.955 649.046 308.724 649.261 305.469C649.673 298.983 651.604 291.591 649.079 285.32C649.174 287.067 648.927 288.817 648.353 290.47Z" fill="#2C2D34"/>
<path d="M654.219 251.622C653.064 252.611 652.668 254.193 652.33 255.676L649.59 267.725C648.963 270.477 648.336 273.23 647.94 276.024C646.207 287.693 648.212 299.692 646.29 311.329C645.733 313.922 645.364 316.553 645.184 319.199C645.102 324.045 646.975 328.866 646.199 333.646C645.939 334.494 645.939 335.401 646.199 336.25C646.595 337.074 647.932 337.338 648.303 336.538C648.369 336.392 648.411 336.236 648.427 336.077L651.282 318.086C651.967 313.809 652.643 309.466 652.173 305.156C651.851 302.222 650.993 299.288 651.463 296.371C651.773 294.926 652.195 293.507 652.726 292.127C655.482 283.886 655.102 274.928 653.551 266.406C653.238 265.169 653.148 263.885 653.287 262.615C653.667 260.53 655.284 258.932 656.373 257.119C657.198 255.751 658.617 252.743 658.023 251.094C657.413 249.166 655.383 250.625 654.219 251.622Z" fill="#2C2D34"/>
<path d="M658.791 425.823C658.411 425.783 658.028 425.851 657.685 426.021C657.396 426.23 657.171 426.515 657.033 426.845C656.118 428.732 655.474 430.916 653.733 432.135C652.857 432.683 651.894 433.078 650.886 433.306L643.13 435.514C642.132 435.795 640.993 436.207 640.655 437.163C640.316 438.119 641.043 439.289 641.975 439.849C643.362 440.509 644.899 440.793 646.431 440.673L657.661 440.838C658.727 440.914 659.799 440.805 660.829 440.517C662.141 440.055 663.247 439.009 664.625 438.868C665.747 438.745 666.828 439.231 667.925 439.478C670.211 439.981 672.579 439.478 674.848 438.901C675.26 438.845 675.644 438.66 675.945 438.374C676.192 438.017 676.311 437.587 676.283 437.154C676.374 435.234 676.407 433.322 676.399 431.386C676.399 429.647 676.193 427.628 674.749 426.672C674.084 426.291 673.343 426.063 672.579 426.004C667.974 425.419 663.428 425.856 658.791 425.823Z" fill="#543F48"/>
<path d="M688.503 450.225C688.186 450.974 687.785 451.684 687.307 452.343L682.579 459.496C680.648 462.405 678.652 465.52 678.52 469.006C681.671 470.219 685.055 470.706 688.421 470.432C690.106 470.389 691.746 469.878 693.157 468.957C695.187 467.465 695.987 464.836 696.647 462.43C696.694 462.11 696.855 461.817 697.101 461.606C697.522 461.317 698.091 461.606 698.603 461.499C699.651 461.367 700.014 460.048 700.088 459.026C700.297 455.767 700.019 452.495 699.263 449.318C699.206 448.922 699.03 448.551 698.76 448.255C698.445 448.02 698.07 447.88 697.679 447.851C695.319 447.448 692.959 446.978 690.591 446.632C687.464 446.129 689.386 447.975 688.503 450.225Z" fill="#543F48"/>
<path d="M649.459 322.759C647.173 325.66 646.439 329.534 646.612 333.217C646.785 336.901 647.8 340.494 648.65 344.087C650.044 349.935 651.053 355.868 651.67 361.847C651.768 363.52 652.044 365.178 652.495 366.792C652.9 368.044 653.527 369.215 653.89 370.475C654.335 372.008 654.377 373.64 654.789 375.181C655.347 376.846 656.059 378.454 656.918 379.986C660.689 387.683 661.497 396.468 661.563 405.039C661.563 407.355 661.563 409.662 661.778 411.961C662.257 416.626 663.701 421.851 660.903 425.609C661.613 428.163 665.029 428.65 667.636 428.312C670.701 427.931 673.697 427.127 676.539 425.922C675.714 424.175 674.51 422.139 674.567 420.153C674.742 418.6 675.136 417.079 675.739 415.637C677.233 411.104 677.389 406.258 677.472 401.487C677.532 400.014 677.51 398.54 677.406 397.07C677.26 395.712 677.04 394.364 676.746 393.031L673.553 377.052C672.992 374.245 672.917 371.363 673.33 368.531C673.931 365.173 675.07 361.933 676.704 358.938C680.525 351.232 681.845 342.546 682.596 333.976C683 329.295 683.099 324.086 680.12 320.452C678.279 318.353 675.786 316.932 673.041 316.414C670.32 315.918 667.541 315.809 664.79 316.092C659.27 316.554 652.883 318.425 649.459 322.759Z" fill="#2C2D34"/>
<path d="M650.126 324.811C649.07 328.355 651.694 331.808 653.047 335.253C653.823 337.239 654.211 339.373 655.399 341.178C656.868 343.379 659.393 344.681 660.985 346.799C662.578 348.917 663.04 351.397 664.286 353.598C665.531 355.798 667.586 357.627 668.741 359.918C670.491 363.339 670.235 367.443 671.464 371.085C672.339 373.698 673.981 376.03 674.616 378.725C674.897 379.936 674.971 381.197 675.284 382.384C676.019 385.219 678.032 387.691 678.238 390.625C678.37 392.545 677.727 394.655 678.742 396.287C679.352 397.284 680.458 397.869 681.217 398.759C681.772 399.569 682.172 400.474 682.397 401.429L684.047 406.827C685.64 412.068 685.821 417.483 687.348 422.749C688.874 428.015 689.955 433.71 688.173 438.902C687.455 441.053 686.259 443.261 686.861 445.445C687.118 446.217 687.54 446.924 688.099 447.516C688.657 448.108 689.339 448.572 690.095 448.873C691.618 449.457 693.234 449.761 694.865 449.772C697.051 449.887 699.403 449.772 701.21 448.56C700.323 441.94 699.969 435.26 700.154 428.584C700.36 424.232 700.979 419.897 700.979 415.538C700.887 412.777 700.626 410.025 700.195 407.297C699.701 403.214 698.828 399.186 697.588 395.265C696.896 393.512 696.318 391.718 695.855 389.891C695.591 388.647 695.508 387.37 695.327 386.109C695.145 384.848 694.873 383.636 694.601 382.343L693.495 377.25C693.247 376.129 692.571 375.148 692.521 374.003L692.183 366.586C691.638 354.438 691.11 342.093 694.04 330.325C692.332 325.265 689.452 319.933 684.542 317.815C682.522 317.008 680.365 316.597 678.189 316.603C668.164 316.29 659.186 320.584 650.126 324.811Z" fill="#2C2D34"/>
<path d="M657.619 241.741C658.089 242.048 658.521 242.41 658.906 242.82C659.364 243.381 659.726 244.013 659.978 244.691C660.912 246.948 661.47 249.342 661.629 251.778C666.983 248.024 671.908 243.693 676.316 238.864C674.344 239.013 672.529 237.603 671.588 235.873C670.759 234.079 670.283 232.143 670.185 230.17C670.136 229.799 665.045 231.958 664.632 232.181C662.817 233.17 661.117 234.348 659.343 235.403C658.491 235.923 657.612 236.399 656.711 236.829C655.886 237.208 654.582 237.381 653.897 237.925C652.074 239.392 656.496 240.958 657.619 241.741Z" fill="#FFC0C6"/>
<path d="M656.795 247.32C656.588 248.91 656.861 250.534 656.621 252.116C656.283 254.399 654.971 256.385 653.981 258.478C651.274 264.354 651.506 271.087 651.382 277.548C651.258 284.619 650.672 291.665 650.078 298.712L648.997 311.609C648.807 313.834 648.618 316.076 648.172 318.276C647.937 319.202 647.823 320.155 647.834 321.111C647.973 322.26 648.314 323.376 648.84 324.408C649.331 325.78 650.117 327.029 651.142 328.067C651.665 328.575 652.335 328.905 653.057 329.01C653.778 329.116 654.515 328.99 655.161 328.652L656.135 325.726C656.17 326.897 656.644 328.011 657.463 328.849C658.282 329.687 659.386 330.187 660.557 330.25C661.398 330.221 662.231 330.077 663.033 329.822L670.665 327.753C672.316 327.381 673.921 326.828 675.451 326.105C678.751 324.35 680.963 321.053 682.151 317.526C683.339 313.999 683.578 310.249 683.718 306.541C684.024 297.978 683.793 289.333 681.977 280.993C681.218 277.491 680.179 274.046 679.552 270.519C678.822 265.76 678.464 260.952 678.479 256.138L678.215 244.221C678.286 242.743 678.035 241.267 677.48 239.895C677.188 239.218 676.689 238.65 676.055 238.273C675.421 237.896 674.684 237.728 673.949 237.793C671.663 238.222 671.127 241.164 669.889 243.133C668.833 244.823 667.059 245.911 665.351 246.941C664.229 247.617 662.826 248.309 661.671 247.683C660.516 247.056 660.524 245.037 659.336 244.518C657.76 243.669 656.935 246.1 656.795 247.32Z" fill="#F2F2F2"/>
<path d="M667.726 250.666C665.565 256.187 664.426 262.047 663.337 267.881C662.19 274.169 661.159 280.622 662.206 286.927C664.187 298.852 673.247 308.486 676.333 320.171C676.869 322.199 677.224 324.292 677.983 326.253C679.163 329.55 681.283 332.352 683.371 335.129C684.493 336.621 686.152 338.294 687.917 337.692C689.229 337.239 689.807 335.747 690.805 334.775C692.2 333.415 694.337 333.176 696.284 333.267C698.231 333.357 700.228 333.712 702.118 333.267C704.007 332.822 705.806 331.132 705.616 329.146C705.492 327.902 704.618 326.888 703.966 325.85C702.068 323.015 701.342 319.57 700.789 316.199C697.612 296.758 699.032 276.774 695.657 257.366C695.236 254.893 694.708 252.421 693.314 250.394C692.627 249.532 691.991 248.633 691.408 247.699C690.879 246.685 690.648 245.507 689.955 244.592C688.965 243.29 687.265 242.804 685.706 242.301C683.584 241.617 681.523 240.76 679.542 239.738C678.041 238.963 675.912 236.821 674.394 237.842C672.875 238.864 671.728 242.433 670.911 243.982C669.724 246.148 668.661 248.38 667.726 250.666Z" fill="#2C2D34"/>
<path d="M674.261 331.009C673.089 331.281 671.844 330.91 670.664 331.173C668.725 331.618 667.611 333.588 666.736 335.368C666.414 335.918 666.214 336.531 666.15 337.165C666.128 337.481 666.207 337.796 666.376 338.064C666.545 338.332 666.796 338.54 667.091 338.656C667.418 338.704 667.752 338.661 668.056 338.532C668.361 338.402 668.623 338.192 668.815 337.923C669.193 337.384 669.637 336.894 670.136 336.464C671.505 335.549 673.37 336.522 674.434 337.775C675.499 339.027 676.299 340.601 677.735 341.351C678.566 341.722 679.458 341.94 680.367 341.994C681.321 342.15 682.293 342.15 683.247 341.994C683.726 341.917 684.18 341.728 684.572 341.441C684.964 341.155 685.282 340.779 685.499 340.346C685.71 339.777 685.802 339.171 685.772 338.566L685.912 330.325C685.969 329.842 685.871 329.354 685.631 328.932C685.343 328.597 684.961 328.356 684.534 328.24C682.999 327.654 679.674 325.668 678.131 326.666C676.406 327.885 676.736 330.44 674.261 331.009Z" fill="#FFC0C6"/>
<path d="M658.411 241.609C666.486 241.609 673.032 235.071 673.032 227.006C673.032 218.94 666.486 212.402 658.411 212.402C650.336 212.402 643.79 218.94 643.79 227.006C643.79 235.071 650.336 241.609 658.411 241.609Z" fill="#FFC0C6"/>
<path d="M656.975 225.415C656.864 224.888 656.61 224.403 656.24 224.011C655.87 223.62 655.399 223.339 654.879 223.198C654.474 223.166 654.072 223.109 653.674 223.025C652.296 222.555 652.329 220.454 651.149 219.613C650.25 218.979 649.012 219.308 648.03 219.786C647.049 220.264 646.058 220.907 644.969 220.849C644.288 220.761 643.653 220.457 643.158 219.983C642.662 219.508 642.331 218.888 642.213 218.212C642.009 216.85 642.27 215.459 642.956 214.265C645.151 209.963 649.747 207.499 654.194 205.62C656.122 204.724 658.166 204.106 660.267 203.782C662.384 203.463 664.545 203.923 666.348 205.076C666.917 205.471 667.413 205.949 667.998 206.32C668.574 206.659 669.169 206.965 669.781 207.235C675.656 210.177 678.717 217.561 677.108 223.932C676.547 226.148 675.458 228.233 675.119 230.483C675.072 231.094 674.916 231.691 674.657 232.247C673.906 233.565 672.083 233.689 670.532 233.648C670.118 233.683 669.705 233.585 669.352 233.368C669.029 233.045 668.823 232.625 668.766 232.173C668.155 229.7 667.198 227.17 665.193 225.58C664.12 224.756 662.388 224.327 661.513 225.374C661.163 225.927 660.886 226.522 660.688 227.146C660.259 228.027 658.939 229.025 657.874 228.794C656.381 228.439 657.33 226.791 656.975 225.415Z" fill="#543F48"/>
<path opacity="0.1" d="M692.983 244.913C691.226 244.707 690.888 253.904 689.114 253.913C688.61 253.913 688.701 251.976 688.289 252.264C687.876 252.553 689.353 258.857 689.114 259.352C688.214 261.206 690.005 253.328 689.114 255.182C687.934 257.605 688.47 258.396 687.859 261.025C686.506 266.794 679.765 270.98 681.135 276.732C682.731 283.027 683.894 289.423 684.617 295.876C684.859 297.936 684.895 300.015 684.724 302.082C684.254 306.565 682.199 310.711 680.128 314.724C678.313 318.235 676.465 321.729 674.988 325.388C674.517 326.278 674.371 327.303 674.575 328.289C675.186 330.143 677.644 330.341 679.526 330.877C683.379 331.973 686.671 335.821 690.582 334.923C692.332 329.616 692.125 324.02 693.652 318.638C695.22 313.125 698.883 308.329 700.071 302.725C700.484 300.407 700.683 298.057 700.665 295.703L701.243 269.703C701.319 268.157 701.266 266.608 701.086 265.071C700.802 263.492 700.385 261.94 699.84 260.431L696.82 251.366C696.028 248.943 695.467 245.21 692.983 244.913Z" fill="black"/>
<path d="M694.239 244.913C692.478 244.707 690.706 244.608 688.934 244.617C688.415 244.53 687.883 244.64 687.442 244.925C687 245.21 686.682 245.65 686.549 246.158L683.851 251.704C682.588 254.088 681.589 256.603 680.872 259.204C679.519 264.972 681.021 270.964 682.39 276.716C683.986 283.011 685.149 289.407 685.872 295.86C686.114 297.92 686.15 299.999 685.98 302.066C685.509 306.549 683.455 310.694 681.384 314.708C679.568 318.218 677.72 321.713 676.243 325.372C675.769 326.26 675.623 327.287 675.831 328.272C676.441 330.127 678.9 330.325 680.781 330.86C684.635 331.956 687.927 335.805 691.838 334.907C693.587 329.599 693.381 324.004 694.907 318.622C696.475 313.109 700.139 308.312 701.327 302.709C701.74 300.391 701.938 298.041 701.921 295.687L702.49 269.686C702.574 268.141 702.522 266.591 702.334 265.055C702.056 263.475 701.642 261.923 701.096 260.415L698.076 251.35C697.284 248.943 696.723 245.21 694.239 244.913Z" fill="#2C2D34"/>
</svg>
