<svg width="12" height="14" viewBox="0 0 12 14" fill="none" xmlns="http://www.w3.org/2000/svg">
<path d="M5.93692 9.59375C4.83847 9.59375 3.83531 9.89404 3.11225 10.4393C2.74775 10.7142 2.32379 11.1543 2.20439 11.7677C2.69496 12.0002 3.95069 12.331 5.95954 12.331C7.96533 12.331 9.22034 12.0012 9.7125 11.7688C9.45946 10.542 7.86274 9.59375 5.93692 9.59375ZM5.93692 8.09375C8.85735 8.09375 11.2475 9.81598 11.2475 12.1103C11.2475 13.2574 8.6035 13.831 5.95954 13.831C3.31559 13.831 0.671631 13.2574 0.671631 12.1103C0.671631 9.81598 3.01649 8.09375 5.93692 8.09375Z" fill="white"/>
<path d="M6.13703 8.38489C8.11752 8.38489 9.72303 6.77938 9.72303 4.79889C9.72303 2.8184 8.11752 1.21289 6.13703 1.21289C4.15653 1.21289 2.55103 2.8184 2.55103 4.79889C2.55103 6.77938 4.15653 8.38489 6.13703 8.38489Z" stroke="white" stroke-width="1.5"/>
</svg>
