<svg width="12" height="14" viewBox="0 0 12 14" fill="none" xmlns="http://www.w3.org/2000/svg">
<path d="M5.93668 9.59375C4.83823 9.59375 3.83507 9.89404 3.11201 10.4393C2.74751 10.7142 2.32355 11.1543 2.20414 11.7677C2.69472 12.0002 3.95045 12.331 5.9593 12.331C7.96508 12.331 9.22009 12.0012 9.71225 11.7688C9.45921 10.542 7.8625 9.59375 5.93668 9.59375ZM5.93668 8.09375C8.85711 8.09375 11.2472 9.81598 11.2472 12.1103C11.2472 13.2574 8.60325 13.831 5.9593 13.831C3.31534 13.831 0.671387 13.2574 0.671387 12.1103C0.671387 9.81598 3.01625 8.09375 5.93668 8.09375Z" fill="white"/>
<path d="M6.13678 8.38489C8.11727 8.38489 9.72278 6.77938 9.72278 4.79889C9.72278 2.8184 8.11727 1.21289 6.13678 1.21289C4.15629 1.21289 2.55078 2.8184 2.55078 4.79889C2.55078 6.77938 4.15629 8.38489 6.13678 8.38489Z" stroke="white" stroke-width="1.5"/>
</svg>
