<?xml version="1.0" encoding="UTF-8"?>
<svg width="191px" height="63px" viewBox="0 0 191 63" version="1.1" xmlns="http://www.w3.org/2000/svg" xmlns:xlink="http://www.w3.org/1999/xlink">
    <!-- Generator: Sketch 61.2 (89653) - https://sketch.com -->
    <title>Fill 1</title>
    <desc>Created with Sketch.</desc>
    <g id="首页-banner-0413三三" stroke="none" stroke-width="1" fill="none" fill-rule="evenodd">
        <g id="首页-0626-banner" transform="translate(-1185.000000, -190.000000)" fill="#FFFFFF">
            <path d="M1249,205 L1266,205 L1266,191 L1249,191 L1249,205 Z M1291,233 C1291,230.37037 1288.73016,228.237037 1285.85448,228.038519 L1265,228 L1265,238 L1285.85448,237.961481 C1288.73016,237.762963 1291,235.631111 1291,233 L1291,233 Z M1304.43446,218.908877 C1307.87251,222.420903 1310,227.219045 1310,232.519355 C1310,243.24591 1301.31498,251.941755 1290.58133,251.993703 L1290.58133,252 L1265.74222,252 L1248,252 L1248,237.832258 L1248,227.206452 L1248,213.1552 L1248,213.03871 L1271.50805,213.03871 L1286.65123,213.03871 L1286.65123,213.013523 C1288.82131,213.013523 1290.58133,211.256723 1290.58133,209.090632 C1290.58133,206.924542 1288.82131,205.167742 1286.65123,205.167742 L1273.62765,205.167742 L1273.62765,199.864284 L1273.62765,191 L1289.20138,191 C1299.21904,191 1307.33788,199.105523 1307.33788,209.103226 C1307.33788,212.720723 1306.26388,216.081626 1304.43446,218.908877 L1304.43446,218.908877 Z M1231.24442,213 L1207.61475,213 L1185,238.454545 L1185,253 L1242,253 L1242,238.454545 L1208.61542,238.454545 L1231.24442,213 Z M1227.74683,191 L1227.71675,191.034139 L1185,191.034139 L1185,205 L1214.79358,205 L1214.99467,205 L1238.17942,205 L1238.428,205 L1242,205 L1242,191.034139 L1227.77375,191.034139 L1227.74683,191 Z M1376,221 L1368.10332,221 L1360.4467,221 L1349.91726,221 L1349.91726,229.11606 L1358.27985,229.11606 C1355.56971,233.837983 1350.58532,237.014609 1344.86655,237.014609 L1344.86497,237.014609 C1333.02626,237.014609 1322.2236,232.471239 1314,224.999594 C1315.91889,240.780461 1328.99106,253 1344.86655,253 C1354.11672,253 1362.40034,248.828345 1368.10332,242.244598 L1368.10332,252.985391 L1376,252.985391 L1376,229.11606 L1376,221 Z M1332.35922,231 C1325.45246,229.009631 1319.20094,225.430189 1314,220.667807 C1314.57333,203.637657 1328.21044,190 1344.99773,190 C1359.41923,190 1371.51118,200.075943 1375,213.713601 L1358.37495,213.713601 C1355.6721,209.026965 1350.70112,205.872995 1344.99773,205.872995 C1336.4135,205.872995 1329.45791,212.991588 1329.45791,221.771777 C1329.45791,225.215841 1330.54,228.397209 1332.35922,231 L1332.35922,231 Z" id="Fill-1"></path>
        </g>
    </g>
</svg>