<?xml version="1.0" standalone="no"?>
<!DOCTYPE svg PUBLIC "-//W3C//DTD SVG 20010904//EN"
 "http://www.w3.org/TR/2001/REC-SVG-20010904/DTD/svg10.dtd">
<svg version="1.0" xmlns="http://www.w3.org/2000/svg"
 width="3001.000000pt" height="3001.000000pt" viewBox="0 0 3001.000000 3001.000000"
 preserveAspectRatio="xMidYMid meet">
<metadata>
Created by potrace 1.14, written by Peter Selinger 2001-2017
</metadata>
<g transform="translate(0.000000,3001.000000) scale(0.100000,-0.100000)"
fill="#000000" stroke="none">
<path d="M14195 24210 c-446 -445 -810 -814 -810 -820 0 -10 1615 -1630 1625
-1630 3 0 371 366 819 814 l814 814 -815 816 c-449 449 -817 816 -820 816 -2
0 -368 -364 -813 -810z"/>
<path d="M12240 21968 c-450 -92 -789 -441 -873 -899 -14 -74 -16 -305 -3
-359 3 -14 11 -47 17 -75 30 -135 94 -277 174 -392 31 -45 634 -655 1750
-1771 l1702 -1704 1681 1682 c925 925 1701 1705 1725 1733 105 123 198 313
224 456 2 14 6 28 8 31 6 9 19 156 19 210 -1 125 -17 226 -55 345 -90 281
-295 518 -564 652 -83 42 -211 82 -315 100 -71 13 -281 11 -358 -3 -96 -17
-238 -60 -247 -74 -3 -6 -13 -10 -21 -10 -21 0 -146 -74 -219 -129 -33 -25
-469 -454 -969 -954 l-909 -908 -916 915 c-506 506 -946 938 -983 964 -113 83
-266 154 -390 181 -24 6 -56 13 -73 16 -16 4 -93 8 -170 10 -108 2 -162 -2
-235 -17z"/>
<path d="M9437 19054 c-1 -1 -35 -4 -75 -8 -90 -7 -144 -20 -251 -58 -265 -95
-477 -280 -605 -528 -92 -177 -125 -323 -122 -530 2 -80 6 -156 10 -170 3 -14
8 -37 11 -51 10 -52 47 -163 78 -228 82 -177 84 -179 1064 -1160 l923 -923
-910 -910 c-501 -501 -933 -940 -960 -977 -140 -184 -218 -422 -218 -661 0
-231 58 -424 184 -615 176 -266 451 -438 774 -484 65 -10 269 -7 325 4 127 25
247 66 335 113 154 84 155 85 1893 1822 l1709 1706 -1693 1693 c-931 931
-1718 1712 -1749 1735 -198 150 -406 223 -658 230 -34 1 -63 1 -65 0z"/>
<path d="M20447 19054 c-1 -1 -32 -5 -69 -8 -173 -18 -369 -96 -522 -210 -41
-31 -785 -767 -1764 -1746 l-1692 -1692 1702 -1702 c1071 -1070 1728 -1719
1769 -1749 127 -89 280 -155 424 -183 11 -2 31 -6 45 -10 55 -12 258 -12 335
1 117 19 124 21 192 44 383 129 661 454 738 861 15 74 17 272 5 345 -16 97
-20 112 -45 188 -46 142 -133 293 -224 391 -25 27 -441 443 -923 926 -483 483
-878 882 -878 888 0 5 406 416 903 913 497 497 928 937 959 978 83 109 171
299 193 416 44 233 27 452 -51 649 -167 417 -556 688 -1005 700 -49 1 -91 1
-92 0z"/>
<path d="M6205 16220 c-446 -445 -811 -813 -813 -818 -3 -9 1615 -1632 1627
-1632 3 0 372 366 819 813 l814 814 -800 799 c-440 439 -808 807 -819 816 -19
17 -44 -7 -828 -792z"/>
<path d="M22180 16215 l-815 -815 135 -135 c878 -881 1492 -1490 1500 -1490 8
0 843 830 1534 1524 l99 100 -815 815 c-449 449 -818 816 -820 816 -1 0 -370
-367 -818 -815z"/>
<path d="M14199 13161 c-443 -443 -809 -812 -813 -819 -5 -8 257 -277 802
-822 445 -446 814 -810 820 -810 8 0 1552 1536 1614 1607 17 18 -8 45 -798
833 -448 448 -816 816 -817 816 -1 1 -365 -361 -808 -805z"/>
<path d="M12387 10955 c-1 -2 -31 -6 -67 -9 -179 -19 -375 -97 -525 -211 -282
-214 -445 -543 -440 -890 2 -141 9 -191 41 -304 40 -137 122 -295 204 -391 33
-39 3404 -3410 3410 -3410 3 0 773 768 1711 1708 1319 1319 1716 1723 1751
1777 199 307 245 646 132 983 -149 447 -590 758 -1060 747 -80 -2 -193 -13
-204 -20 -4 -2 -20 -6 -36 -9 -47 -9 -154 -46 -219 -76 -62 -29 -191 -111
-235 -149 -14 -12 -433 -430 -933 -929 l-907 -906 -923 920 c-846 845 -930
927 -1022 986 -79 51 -211 118 -245 124 -3 0 -12 3 -20 6 -19 7 -96 27 -130
33 -14 3 -40 8 -57 11 -31 6 -220 13 -226 9z"/>
</g>
</svg>
